<?xml version="1.0" encoding="UTF-8" standalone="no"?>
<!-- Created with Inkscape (http://www.inkscape.org/) -->

<svg
   width="1920"
   height="251"
   viewBox="0 0 508 66.410432"
   version="1.1"
   id="svg5"
   xml:space="preserve"
   xmlns="http://www.w3.org/2000/svg"
   xmlns:svg="http://www.w3.org/2000/svg"><defs
     id="defs2" /><g
     id="layer1"><path
       style="fill:#ffca2b;fill-opacity:1;stroke-width:0.794627"
       d="m 474.041,64.588773 c -3.77286,-1.495727 -5.14548,-6.423058 -3.78061,-10.065717 1.57987,-9.839481 2.42576,-20.583378 -2.27221,-29.728317 -1.57495,-3.202796 -6.38891,-4.968605 -9.06136,-2.096065 -2.37623,2.02926 -4.90184,4.93953 -8.34044,4.400197 -3.06903,-0.514753 -5.50853,-3.830139 -8.82667,-2.720051 -3.94745,1.610752 -2.85905,7.482147 -6.67465,9.239577 -3.2027,1.357954 -7.04494,-1.083244 -7.81253,-4.388553 -2.40637,-5.668786 -10.39248,-8.840616 -15.37914,-4.631194 -3.11305,2.550784 -3.3158,6.996582 -2.81486,10.708947 0.5688,5.594008 2.79369,11.356342 1.00597,16.937969 -1.57967,3.43812 -7.60984,3.57261 -8.63139,-0.388673 -1.69026,-4.838099 -0.10077,-9.971433 -0.3734,-14.944526 0.0992,-4.462211 -0.31059,-9.797013 -4.09163,-12.711617 -2.90378,-1.452542 -6.23043,0.08025 -8.51872,2.017142 -3.3042,1.216632 -6.75324,-2.012129 -6.86879,-5.332416 -1.0816,-3.634716 -6.79217,-3.831868 -8.36915,-0.50306 -2.6095,3.396097 -3.5094,8.493694 -7.78582,10.300001 -3.30137,0.76936 -4.95693,-2.919911 -7.30423,-4.474956 -3.06008,-1.541228 -6.48252,1.779565 -6.44652,4.900862 -0.50785,4.407058 -5.78418,7.309848 -9.65473,5.14715 -3.79551,-2.178394 -4.46403,-7.358249 -8.3556,-9.45951 -2.82907,-2.031957 -7.43414,-1.526189 -9.02883,1.856365 -1.5799,3.372023 0.30995,6.931283 0.7085,10.352717 0.68039,3.628501 1.00057,8.018843 -1.65904,10.934408 -2.78592,2.610192 -8.27336,1.157337 -8.78045,-2.88474 -1.20111,-4.924772 1.37461,-9.755473 0.89102,-14.713063 -0.0361,-3.549657 -0.95536,-7.855103 -4.38412,-9.552369 -3.09226,-0.979398 -6.53941,1.695082 -6.73912,4.905439 -0.85926,2.925339 -2.01061,6.722186 -5.41097,7.361746 -3.67398,0.379871 -5.19384,-3.761605 -7.63889,-5.65113 -3.29355,-1.452825 -6.16842,1.436139 -9.1635,2.262018 -3.73746,0.37993 -6.56691,-2.72745 -8.57359,-5.519916 -2.48936,-2.870833 -7.01429,-4.972588 -10.46999,-2.550087 -4.14643,2.710511 -4.99241,8.630498 -3.13798,13.000475 0.79767,3.253937 1.11907,7.518572 -1.77845,9.819348 -3.10466,1.886361 -7.7343,-0.867133 -7.52734,-4.565864 -0.79512,-5.32991 2.06511,-11.019547 -0.63415,-16.067975 -3.24977,-3.832443 -9.68222,-2.31915 -12.13318,1.686633 -2.20361,2.579871 -4.0428,5.909153 -7.4425,7.00398 -4.27151,0.108717 -7.51397,-4.049504 -7.90482,-8.100201 -0.99596,-3.604305 -6.72772,-4.772698 -8.50002,-1.188051 -2.69805,4.103747 -1.9589,10.133281 -6.22815,13.222792 -2.9897,1.819305 -7.10852,-0.596354 -7.70076,-3.916489 -1.48234,-3.467794 -7.65014,-1.609176 -7.01898,2.120937 0.27379,2.960671 -0.71789,7.048369 -4.10182,7.578252 -3.34831,0.234192 -4.71381,-5.175014 -8.23976,-3.857508 -2.58722,1.3586 -2.0082,4.700708 -1.55224,7.083055 0.9868,2.406492 -0.87503,5.102398 -3.33169,5.363858 -3.00733,0.4709 -4.29305,-2.938336 -4.72408,-5.350608 -0.46065,-3.563282 -0.22827,-7.178341 -0.68341,-10.747424 -0.31432,-3.505199 -0.90788,-7.440114 -3.59145,-9.926438 -2.82922,-1.805002 -7.18539,0.412656 -7.27294,3.856265 -0.53891,2.94736 -1.57463,7.299974 -5.24278,7.322624 -3.64543,-0.141687 -5.76797,-3.613109 -7.64244,-6.328865 -2.68148,-3.487916 -7.75095,-6.124628 -11.92823,-3.772995 -3.01296,1.947284 -4.73701,6.098148 -8.6582,6.416609 -3.58527,-0.247159 -6.08402,-3.707655 -6.6685,-7.075888 -2.23864,-5.749995 -11.96706,-4.920721 -13.30173,1.084163 -2.25822,6.304093 1.79451,12.978757 -0.51315,19.275845 -2.01892,3.586326 -8.272874,2.607059 -9.101326,-1.450086 C 95.199771,41.191101 98.760188,35.719819 95.88737,31.083359 92.868215,27.048681 86.637631,27.783073 83.198587,30.8457 c -3.755274,3.202959 -4.139552,9.192834 -8.558654,11.718363 -3.019472,1.099708 -5.536333,-1.981769 -6.208088,-4.671005 -0.479919,-4.035992 -5.512918,-3.385617 -7.924984,-1.577268 -2.915542,1.759148 -5.814412,-1.645105 -5.742809,-4.528844 0.02608,-2.80135 -2.610889,-5.923991 -5.46945,-4.352614 -2.952859,1.704189 -2.615354,6.076278 -5.724618,7.645633 -3.258107,1.642881 -6.384304,-1.123893 -9.581983,-1.56503 -3.083222,-0.668445 -5.661817,2.219033 -5.883629,5.157066 -0.533598,4.273194 1.400096,8.357446 1.336291,12.625952 -0.01706,3.024313 0.04427,6.513199 -1.749471,9.035827 -3.097258,2.750169 -8.857643,0.15437 -8.704011,-4.104859 -1.219129,-6.519688 2.004014,-13.374453 -0.749739,-19.68276 -2.096735,-3.411752 -6.46727,-3.55837 -10.0029135,-3.77821 C 2.987374,32.099687 -0.29451082,26.504416 -0.19505057,21.458029 -0.62583005,15.281008 0.29269526,9.0577491 -0.57391507,2.9061968 -0.42102622,0.04458124 2.9245671,-0.50331201 5.1801359,-0.27169722 11.303713,0.25330441 17.476603,-0.08526939 23.620711,-0.0320375 185.07361,-0.21289654 346.52727,-0.07054396 507.98046,-0.1267371 c 1.99334,10.3623991 -0.6346,21.7433201 -7.62304,29.6738101 -2.85457,2.100552 -7.27852,0.784409 -8.87822,-2.313672 -3.06102,-3.498054 -9.79449,-1.406628 -10.29816,3.27985 -2.6834,8.709159 0.92268,17.59091 0.93082,26.390099 0.0895,3.317265 -1.31073,7.40468 -4.88855,8.171372 -1.06599,0.255588 -2.25885,0.149589 -3.18231,-0.485939 z"
       id="path302" /></g></svg>
