<?xml version="1.0" encoding="UTF-8"?>
<!-- Created with Inkscape (http://www.inkscape.org/) -->
<svg id="a" width="720px" height="576px" version="1.1" viewBox="0 0 720 576" xml:space="preserve" xmlns="http://www.w3.org/2000/svg"><g transform="matrix(1.853 0 0 1.853 -144.1 -30.58)"><g transform="matrix(.5284 0 0 .5284 132.1 53.79)"><path d="m401 326.9s55.99-33.06 67.75-97.58 5.584-108.5-13.46-136.4c-19.04-27.84-29.04-18.36-29.04-18.36s20.78-20.48 5.178-36.83c-15.6-16.36-23.98 8.471-23.98 8.471s-20.03-15.87-27.41-9.023 4.383 31.19 4.383 31.19-15 10.78-9.29 21.66c5.71 10.88 34.05-2.328 34.05-2.328s44.51 28.43 39.46 69.5-6.55 102.5-41.69 118.5c-35.14 15.96-5.974 51.21-5.974 51.21z" fill="#558a39" stroke="#000" stroke-width="5.3"/><path d="m416.9 313.4-15.17 12.61s46.48 19.56 42.87 60.36c-3.617 40.79-175.8 46.23-175.8 46.23s-201.3-10.68-199.9-36.93c1.43-26.25 27.49-98.11 42.49-99.8 15.01-1.685 280.4-9.769 280.4-9.769z" fill="#0342ef" stroke="#000" stroke-width="5.3"/><g transform="translate(531.2 .02666)"><g><g stroke="#000" stroke-width="5.3"><path d="m-129.9 272.8s16.01 22.12-26.44 35.16c-42.45 13.04-170.6 37.92-218.2 13.71-47.63-24.21-76.69-37.59-78.94-109.8-2.252-72.17 51.76-109.8 72.62-114.1 20.86-4.311 88.42 16.35 88.42 16.35s35.16-29.76 71.64-30.73c36.47-0.9764 48.23 27.9 48.23 27.9s42.53-11.4 64.67 29.37c11.07 20.38-0.4762 42.59-20.16 60.53 39.57 19.77-3.366 39.99-3.366 39.99s21.82 5.021 1.546 31.57z" fill="#548c38"/><path d="m-128.1 201.3s-8.615 43.58-151.1 37.27c-88.11 2.326-112.3-28.82-130.9 9.259-4.287 34.34 128.7 49.79 174.2 43.45s106-18.43 106-18.43 9.51-15.11 8.503-20.28c-2.437-12.51-11.8-10.13-11.8-10.13s21.87-12.31 21.75-22.97c-0.1037-8.912-16.63-18.19-16.63-18.19z" fill="#a75b39" stroke-linecap="round"/><path d="m-133.2 242.4s-64.39 19.22-119.4 21.11-114.8-9.902-114.8-9.902" fill="#a75b39" stroke-linecap="round"/></g><g fill="none" stroke="#000" stroke-linecap="round" stroke-width="5.3"><path d="m-172.6 111.4s-31.42 4.051-75.05 35.31"/><path d="m-274.2 130.7s40.95-29.25 80.49-14.43"/><path d="m-298 131.2s-21.81-20.72-65.64-12.01c-43.82 8.71-41.38 28.38-41.38 28.38"/><path d="m-408 192.1s21.13 3.739 53.21-28.66c32.07-32.4 57.27-18.57 57.27-18.57"/></g><path d="m-104.1 154.4s-37.17-33.77-77.2-21.36-23.83 23.64-53.5 36.72c-29.67 13.08-1.995 31.31-1.995 31.31s37.27 10.5 54.29 4.473 50.66-16.14 61.28-19.64c10.62-3.494 13.5-9.102 16.26-18.68s0.8633-12.83 0.8633-12.83z" fill="#fff" stroke="#000" stroke-linecap="round" stroke-width="5.3"/><path d="m-384.8 199.2s23.05-2.008 44.04-26.05 78.54-23.72 94.95-11.96c16.41 11.76 11.31 25.07 11.31 25.07s5.891 19.09-73.94 40.4c-84.2-6.45-76.34-42.37-76.36-27.46z" fill="#fff" stroke="#000" stroke-linecap="round" stroke-linejoin="round" stroke-width="5.3"/><path d="m-304.2 162.4c-1.589 0.0129-3.243 0.0801-4.963 0.2051-34.97 13.76-10.71 60.94-10.71 60.94l12.77 3.078 39.78-12.83s12.4-51.79-36.87-51.39zm-8.012 7.439a7.934 9.103 0 0 1 7.934 9.104 7.934 9.103 0 0 1-7.934 9.102 7.934 9.103 0 0 1-7.934-9.102 7.934 9.103 0 0 1 7.934-9.104zm25.44 4.377a9.769 11.43 0 0 1 9.77 11.43 9.769 11.43 0 0 1-9.77 11.43 9.769 11.43 0 0 1-9.768-11.43 9.769 11.43 0 0 1 9.768-11.43zm-20.31 16.47a6.101 6.357 0 0 1 6.102 6.355 6.101 6.357 0 0 1-6.102 6.357 6.101 6.357 0 0 1-6.1-6.357 6.101 6.357 0 0 1 6.1-6.355zm5.609 12.81a5.073 4.908 0 0 1 5.072 4.91 5.073 4.908 0 0 1-5.072 4.908 5.073 4.908 0 0 1-5.074-4.908 5.073 4.908 0 0 1 5.074-4.91z"/><path d="m-165.5 138.7c-2.854 0.0166-5.991 0.348-9.439 1.039-47.06 30.62-4.471 64.06-4.471 64.06l39.69-10.71s11.95-54.6-25.78-54.38zm-10.62 10.09a6.671 7.692 0 0 1 6.67 7.691 6.671 7.692 0 0 1-6.67 7.691 6.671 7.692 0 0 1-6.672-7.691 6.671 7.692 0 0 1 6.672-7.691zm19.36 8.99a8.675 10.61 0 0 1 8.674 10.61 8.675 10.61 0 0 1-8.674 10.61 8.675 10.61 0 0 1-8.674-10.61 8.675 10.61 0 0 1 8.674-10.61zm-21.67 13.3a5.645 5.651 0 0 1 5.645 5.65 5.645 5.651 0 0 1-5.645 5.652 5.645 5.651 0 0 1-5.646-5.652 5.645 5.651 0 0 1 5.646-5.65zm7 11.68a4.584 4.618 0 0 1 4.582 4.617 4.584 4.618 0 0 1-4.582 4.619 4.584 4.618 0 0 1-4.584-4.619 4.584 4.618 0 0 1 4.584-4.617z"/></g></g><path d="m121.5 369.5s-50.39-10.4-58.18-65.93c-7.793-55.53-12.45-135.8-5.937-168.9 6.514-33.06 9.146-55.35 24.86-70.15 15.71-14.8 31.87-19.57 31.87-19.57s-13.53-19.05-2.797-27.29c10.73-8.237 27.63 11.09 27.63 11.09s11.5-24.15 21.8-10.61c10.3 13.53-5.091 27.86-5.091 27.86s10.87 12.54 0.9299 23.67c-9.942 11.13-30.31-6.23-30.31-6.23s-33.92 20.56-36.98 59.92c-3.063 39.37 6.824 167.7 14.79 180 7.963 12.32 23.31 19.87 23.31 19.87s7.219 19.75 2.313 38.01c-4.906 18.27-8.19 8.214-8.19 8.214z" fill="#55893d" stroke="#000" stroke-width="4.4"/></g></g></svg>
