<?xml version="1.0" encoding="UTF-8"?>
<!-- Created with Inkscape (http://www.inkscape.org/) -->
<svg id="i" width="720px" height="576px" version="1.1" viewBox="0 0 720 576" xml:space="preserve" xmlns="http://www.w3.org/2000/svg" xmlns:xlink="http://www.w3.org/1999/xlink"><defs><linearGradient id="a"><stop stop-color="#1a1a1a" offset="0"/><stop stop-color="#6b6b6b" offset="1"/></linearGradient><linearGradient id="b" x1="-396" x2="-362.3" y1="322.2" y2="356.1" gradientTransform="matrix(4.429 0 0 4.429 2032 -1200)" gradientUnits="userSpaceOnUse" xlink:href="#c" spreadMethod="reflect"/><linearGradient id="c"><stop stop-color="#efeced" offset="0"/><stop stop-color="#8c8d8c" offset="1"/></linearGradient><filter id="e" x="-.07254" y="-.07254" width="1.145" height="1.176" color-interpolation-filters="sRGB"><feFlood flood-color="rgb(0,0,0)" flood-opacity=".6392" result="flood"/><feComposite in="flood" in2="SourceGraphic" operator="in" result="composite1"/><feGaussianBlur in="composite1" result="blur" stdDeviation="9.34521"/><feOffset dx="0" dy="9.43102" result="offset"/><feComposite in="SourceGraphic" in2="offset" result="composite2"/></filter><linearGradient id="d" x1="265.2" x2="320.2" y1="198.5" y2="250.9" gradientTransform="translate(-5.976 18.47)" gradientUnits="userSpaceOnUse" xlink:href="#c"/><linearGradient id="h" x1="182.4" x2="308.7" y1="227.6" y2="325.9" gradientUnits="userSpaceOnUse" xlink:href="#a"/><linearGradient id="g" x1="327.9" x2="355.1" y1="283.1" y2="283.1" gradientUnits="userSpaceOnUse" xlink:href="#a"/><linearGradient id="f" x1="155.1" x2="166.9" y1="297.1" y2="297.1" gradientUnits="userSpaceOnUse" xlink:href="#a"/></defs><g transform="matrix(2.072 0 0 2.072 -203.5 -42.29)"><g transform="matrix(1.022 0 0 1.022 22.66 -83.83)"><rect x="171.5" y="226.9" width="151.5" height="109.6" ry="13.94" fill="url(#h)" stroke-linecap="round" stroke-linejoin="round" stroke-opacity=".3874" stroke-width="8.3" style="paint-order:fill markers stroke"/><g transform="matrix(.9104 0 0 .9104 -46.31 -246.9)"><g transform="matrix(.3704 0 0 .3704 276.4 403.1)"><path transform="translate(-7.645 17.97)" d="m287.2 221.9c0.5838 0.526-0.4209 1.046-0.8742 0.9704-1.228-0.2062-1.505-1.751-1.067-2.719 0.7834-1.73 3.036-2.046 4.563-1.163 2.242 1.296 2.602 4.337 1.259 6.408-1.79 2.76-5.645 3.165-8.252 1.355-3.281-2.277-3.731-6.955-1.451-10.1 2.76-3.805 8.267-4.298 11.94-1.548 4.33 3.242 4.867 9.58 1.644 13.79-3.721 4.856-10.89 5.437-15.63 1.74-5.383-4.2-6.007-12.21-1.836-17.47 4.679-5.909 13.52-6.578 19.32-1.932 6.437 5.157 7.149 14.84 2.029 21.16-5.635 6.964-16.15 7.72-23.01 2.125-7.492-6.112-8.291-17.47-2.221-24.85 6.59-8.019 18.78-8.862 26.7-2.317 8.547 7.067 9.434 20.1 2.413 28.54-7.544 9.075-21.41 10.01-30.39 2.51-9.603-8.021-10.58-22.73-2.606-32.23 8.498-10.13 24.04-11.15 34.08-2.702 10.66 8.974 11.72 25.36 2.798 35.92-9.451 11.19-26.67 12.29-37.76 2.894-11.72-9.928-12.87-27.99-2.991-39.61 10.4-12.24 29.3-13.44 41.45-3.087 12.77 10.88 14.01 30.62 3.183 43.3-11.36 13.3-31.94 14.58-45.14 3.279-13.83-11.83-15.15-33.25-3.376-46.99 12.31-14.36 34.57-15.73 48.83-3.472 14.89 12.79 16.3 35.88 3.568 50.68-13.26 15.41-37.2 16.87-52.52 3.664-15.94-13.74-17.44-38.51-3.76-54.37 14.22-16.47 39.83-18.01 56.21-3.857 17 14.69 18.59 41.15 3.953 58.05-15.17 17.53-42.46 19.16-59.9 4.049-18.06-15.65-19.73-43.78-4.145-61.74 16.12-18.58 45.09-20.3 63.59-4.241 19.11 16.6 20.88 46.41 4.338 65.43-17.07 19.64-47.72 21.45-67.28 4.434-20.17-17.55-22.02-49.04-4.53-69.12 18.03-20.7 50.36-22.59 70.97-4.626 21.23 18.5 23.16 51.67 4.722 72.81-18.98 21.75-52.99 23.74-74.66 4.819-22.28-19.46-24.31-54.3-4.915-76.5 19.93-22.81 55.62-24.88 78.34-5.011 23.34 20.41 25.45 56.94 5.107 80.19-20.88 23.87-58.25 26.03-82.03 5.203-24.4-21.36-26.6-59.57-5.3-83.88 21.84-24.93 60.88-27.17 85.72-5.396 25.45 22.31 27.74 62.2 5.492 87.57-22.79 25.98-63.52 28.31-89.41 5.588-26.51-23.27-28.89-64.83-5.684-91.26 23.74-27.04 66.15-29.46 93.1-5.781 27.57 24.22 30.03 67.46 5.877 94.95-24.7 28.1-68.78 30.6-96.79 5.973-28.63-25.17-31.18-70.09-6.069-98.63 25.65-29.15 71.41-31.75 100.5-6.166 29.68 26.12 32.32 72.73 6.262 102.3-26.6 30.21-74.04 32.89-104.2 6.358-30.74-27.08-33.47-75.36-6.454-106 27.55-31.27 76.67-34.04 107.9-6.55 31.8 28.03 34.61 77.99 6.647 109.7-28.51 32.33-79.31 35.18-111.5 6.743-32.85-28.98-35.76-80.62-6.839-113.4 29.46-33.38 81.94-36.33 115.2-6.935 33.91 29.93 36.9 83.25 7.031 117.1-30.41 34.44-84.57 37.47-118.9 7.128-34.97-30.89-38.04-85.89-7.224-120.8 31.36-35.5 87.2-38.62 122.6-7.32 36.03 31.84 39.19 88.52 7.416 124.5-32.31 36.55-89.83 39.76-126.3 7.512-37.08-32.79-40.33-91.15-7.609-128.1 33.27-37.61 92.46-40.91 130-7.705 38.14 33.74 41.48 93.78 7.801 131.8-34.22 38.67-95.1 42.05-133.7 7.897-39.2-34.7-42.62-96.41-7.993-135.5 35.17-39.73 97.73-43.2 137.4-8.09 40.25 35.65 43.77 99.04 8.186 139.2-36.12 40.78-100.4 44.34-141.1 8.282-41.31-36.6-44.91-101.7-8.378-142.9 37.08-41.84 103-45.49 144.7-8.474 42.37 37.55 46.06 104.3 8.571 146.6-38.03 42.9-105.6 46.63-148.4 8.667-43.43-38.51-47.2-106.9-8.763-150.3 38.98-43.95 108.3-47.77 152.1-8.859 25.84 22.92 39.39 57.62 36.03 91.98" fill="none" stroke="#000" stroke-width="4.8"/><g stroke-linejoin="round" stroke-miterlimit="4.3"><path d="m281 79.27a154.6 154.6 0 0 0-154.6 154.6 154.6 154.6 0 0 0 154.6 154.6 154.6 154.6 0 0 0 154.6-154.6 154.6 154.6 0 0 0-154.6-154.6zm0.2077 29.71c28.71 2.483 32.82 23.66 29.2 44.44-3.43 12.28-7.202 28.06-29.2 31.68-22-3.624-25.77-19.4-29.2-31.68-3.61-20.78 0.4908-41.96 29.2-44.44zm-81.6 46.8c9.185 0.4955 18.33 5.63 26.43 12.39 8.921 9.111 20.69 20.27 12.83 41.13-14.14 17.24-29.68 12.62-42.03 9.447-19.8-7.263-36.09-21.4-23.88-47.51 8.254-11.81 17.48-15.95 26.66-15.46zm163 0.3632c9.185-0.4955 18.41 3.655 26.66 15.47 12.21 26.11-4.076 40.25-23.88 47.51-12.35 3.17-27.9 7.788-42.04-9.455-7.863-20.87 3.916-32.02 12.84-41.13 8.095-6.758 17.23-11.89 26.42-12.39zm-151 89.53c8.813-0.612 18.2 1.62 27.03 12.4 7.863 20.87-3.908 32.02-12.83 41.13-16.19 13.52-36.58 20.55-53.09-3.071-12.21-26.11 4.085-40.25 23.88-47.51 4.632-1.189 9.713-2.583 15-2.95zm138.5 0.3632c5.288 0.3672 10.37 1.761 15 2.95 19.8 7.263 36.09 21.4 23.88 47.51-16.51 23.63-36.9 16.59-53.09 3.071-8.921-9.111-20.69-20.26-12.83-41.13 8.837-10.78 18.22-13.02 27.03-12.41zm-69.38 36.6c22 3.624 25.77 19.4 29.2 31.68 3.61 20.78-0.4908 41.96-29.2 44.44-28.71-2.483-32.82-23.66-29.2-44.44 3.43-12.28 7.202-28.06 29.2-31.68z" fill="url(#b)" filter="url(#e)" stroke-width="210.9" style="paint-order:fill markers stroke"/><circle cx="281" cy="233.9" r="33.89" fill="url(#d)" stroke="#000" stroke-opacity=".3874" stroke-width="5" style="paint-order:fill markers stroke"/><path transform="matrix(3.512 0 0 3.512 1669 -903)" d="m-392.3 325.7-2.111-0.2857-0.9789 1.892-0.8082-1.971-2.128 0.0984 1.303-1.686-1.149-1.794 2.111 0.2857 0.9789-1.892 0.8082 1.971 2.128-0.0984-1.303 1.686z" fill-opacity=".4785" stroke-width="47.62" style="paint-order:fill markers stroke"/></g></g></g><path d="m327.9 255.3 27.14-11.89v79.41l-27.14-12.38z" fill="url(#g)" stroke-linecap="round" stroke-linejoin="round" stroke-opacity=".3874" stroke-width="8.3" style="paint-order:fill markers stroke"/><path d="m155.1 282.7 11.84 7.037v15.23l-11.84 6.583z" fill="url(#f)" stroke-linecap="round" stroke-linejoin="round" stroke-opacity=".3874" stroke-width="8.3" style="paint-order:fill markers stroke"/><g transform="matrix(.8078 0 0 .8078 -126.5 -177.2)"><g transform="matrix(.3704 0 0 .3704 276.4 403.1)"><path transform="translate(-7.645 17.97)" d="m287.2 221.9c0.5838 0.526-0.4209 1.046-0.8742 0.9704-1.228-0.2062-1.505-1.751-1.067-2.719 0.7834-1.73 3.036-2.046 4.563-1.163 2.242 1.296 2.602 4.337 1.259 6.408-1.79 2.76-5.645 3.165-8.252 1.355-3.281-2.277-3.731-6.955-1.451-10.1 2.76-3.805 8.267-4.298 11.94-1.548 4.33 3.242 4.867 9.58 1.644 13.79-3.721 4.856-10.89 5.437-15.63 1.74-5.383-4.2-6.007-12.21-1.836-17.47 4.679-5.909 13.52-6.578 19.32-1.932 6.437 5.157 7.149 14.84 2.029 21.16-5.635 6.964-16.15 7.72-23.01 2.125-7.492-6.112-8.291-17.47-2.221-24.85 6.59-8.019 18.78-8.862 26.7-2.317 8.547 7.067 9.434 20.1 2.413 28.54-7.544 9.075-21.41 10.01-30.39 2.51-9.603-8.021-10.58-22.73-2.606-32.23 8.498-10.13 24.04-11.15 34.08-2.702 10.66 8.974 11.72 25.36 2.798 35.92-9.451 11.19-26.67 12.29-37.76 2.894-11.72-9.928-12.87-27.99-2.991-39.61 10.4-12.24 29.3-13.44 41.45-3.087 12.77 10.88 14.01 30.62 3.183 43.3-11.36 13.3-31.94 14.58-45.14 3.279-13.83-11.83-15.15-33.25-3.376-46.99 12.31-14.36 34.57-15.73 48.83-3.472 14.89 12.79 16.3 35.88 3.568 50.68-13.26 15.41-37.2 16.87-52.52 3.664-15.94-13.74-17.44-38.51-3.76-54.37 14.22-16.47 39.83-18.01 56.21-3.857 17 14.69 18.59 41.15 3.953 58.05-15.17 17.53-42.46 19.16-59.9 4.049-18.06-15.65-19.73-43.78-4.145-61.74 16.12-18.58 45.09-20.3 63.59-4.241 19.11 16.6 20.88 46.41 4.338 65.43-17.07 19.64-47.72 21.45-67.28 4.434-20.17-17.55-22.02-49.04-4.53-69.12 18.03-20.7 50.36-22.59 70.97-4.626 21.23 18.5 23.16 51.67 4.722 72.81-18.98 21.75-52.99 23.74-74.66 4.819-22.28-19.46-24.31-54.3-4.915-76.5 19.93-22.81 55.62-24.88 78.34-5.011 23.34 20.41 25.45 56.94 5.107 80.19-20.88 23.87-58.25 26.03-82.03 5.203-24.4-21.36-26.6-59.57-5.3-83.88 21.84-24.93 60.88-27.17 85.72-5.396 25.45 22.31 27.74 62.2 5.492 87.57-22.79 25.98-63.52 28.31-89.41 5.588-26.51-23.27-28.89-64.83-5.684-91.26 23.74-27.04 66.15-29.46 93.1-5.781 27.57 24.22 30.03 67.46 5.877 94.95-24.7 28.1-68.78 30.6-96.79 5.973-28.63-25.17-31.18-70.09-6.069-98.63 25.65-29.15 71.41-31.75 100.5-6.166 29.68 26.12 32.32 72.73 6.262 102.3-26.6 30.21-74.04 32.89-104.2 6.358-30.74-27.08-33.47-75.36-6.454-106 27.55-31.27 76.67-34.04 107.9-6.55 31.8 28.03 34.61 77.99 6.647 109.7-28.51 32.33-79.31 35.18-111.5 6.743-32.85-28.98-35.76-80.62-6.839-113.4 29.46-33.38 81.94-36.33 115.2-6.935 33.91 29.93 36.9 83.25 7.031 117.1-30.41 34.44-84.57 37.47-118.9 7.128-34.97-30.89-38.04-85.89-7.224-120.8 31.36-35.5 87.2-38.62 122.6-7.32 36.03 31.84 39.19 88.52 7.416 124.5-32.31 36.55-89.83 39.76-126.3 7.512-37.08-32.79-40.33-91.15-7.609-128.1 33.27-37.61 92.46-40.91 130-7.705 38.14 33.74 41.48 93.78 7.801 131.8-34.22 38.67-95.1 42.05-133.7 7.897-39.2-34.7-42.62-96.41-7.993-135.5 35.17-39.73 97.73-43.2 137.4-8.09 40.25 35.65 43.77 99.04 8.186 139.2-36.12 40.78-100.4 44.34-141.1 8.282-41.31-36.6-44.91-101.7-8.378-142.9 37.08-41.84 103-45.49 144.7-8.474 42.37 37.55 46.06 104.3 8.571 146.6-38.03 42.9-105.6 46.63-148.4 8.667-43.43-38.51-47.2-106.9-8.763-150.3 38.98-43.95 108.3-47.77 152.1-8.859 25.84 22.92 39.39 57.62 36.03 91.98" fill="none" stroke="#000" stroke-width="4.8"/><g stroke-linejoin="round" stroke-miterlimit="4.3"><path d="m281 79.27a154.6 154.6 0 0 0-154.6 154.6 154.6 154.6 0 0 0 154.6 154.6 154.6 154.6 0 0 0 154.6-154.6 154.6 154.6 0 0 0-154.6-154.6zm0.2077 29.71c28.71 2.483 32.82 23.66 29.2 44.44-3.43 12.28-7.202 28.06-29.2 31.68-22-3.624-25.77-19.4-29.2-31.68-3.61-20.78 0.4908-41.96 29.2-44.44zm-81.6 46.8c9.185 0.4955 18.33 5.63 26.43 12.39 8.921 9.111 20.69 20.27 12.83 41.13-14.14 17.24-29.68 12.62-42.03 9.447-19.8-7.263-36.09-21.4-23.88-47.51 8.254-11.81 17.48-15.95 26.66-15.46zm163 0.3632c9.185-0.4955 18.41 3.655 26.66 15.47 12.21 26.11-4.076 40.25-23.88 47.51-12.35 3.17-27.9 7.788-42.04-9.455-7.863-20.87 3.916-32.02 12.84-41.13 8.095-6.758 17.23-11.89 26.42-12.39zm-151 89.53c8.813-0.612 18.2 1.62 27.03 12.4 7.863 20.87-3.908 32.02-12.83 41.13-16.19 13.52-36.58 20.55-53.09-3.071-12.21-26.11 4.085-40.25 23.88-47.51 4.632-1.189 9.713-2.583 15-2.95zm138.5 0.3632c5.288 0.3672 10.37 1.761 15 2.95 19.8 7.263 36.09 21.4 23.88 47.51-16.51 23.63-36.9 16.59-53.09 3.071-8.921-9.111-20.69-20.26-12.83-41.13 8.837-10.78 18.22-13.02 27.03-12.41zm-69.38 36.6c22 3.624 25.77 19.4 29.2 31.68 3.61 20.78-0.4908 41.96-29.2 44.44-28.71-2.483-32.82-23.66-29.2-44.44 3.43-12.28 7.202-28.06 29.2-31.68z" fill="url(#b)" filter="url(#e)" stroke-width="210.9" style="paint-order:fill markers stroke"/><circle cx="281" cy="233.9" r="33.89" fill="url(#d)" stroke="#000" stroke-opacity=".3874" stroke-width="5" style="paint-order:fill markers stroke"/><path transform="matrix(3.512 0 0 3.512 1669 -903)" d="m-392.3 325.7-2.111-0.2857-0.9789 1.892-0.8082-1.971-2.128 0.0984 1.303-1.686-1.149-1.794 2.111 0.2857 0.9789-1.892 0.8082 1.971 2.128-0.0984-1.303 1.686z" fill-opacity=".4785" stroke-width="47.62" style="paint-order:fill markers stroke"/></g></g></g></g></g></svg>
