<?xml version="1.0" encoding="UTF-8"?>
<!-- Created with Inkscape (http://www.inkscape.org/) -->
<svg id="a" width="720px" height="576px" version="1.1" viewBox="0 0 720 576" xml:space="preserve" xmlns="http://www.w3.org/2000/svg"><path d="m358.2 250.9 0.8803-228.3 10.87 2.179c-1.746 18.9 2.368 32.97 22.62 54.4 41.06 43.45 58.02 50.87 62.63 72.33 4.611 21.46 1.897 36.75-4.336 50.76-6.232 14.01-15.98 26.73-25.44 43.07l-5.039-5.22s22.95-36.13 22.81-60.1c-0.1134-19.35-2.193-28.41-16.93-49.33-14.03-19.92-56.66-27.64-56.66-27.64l-1.466 172.9s-4.496 24.95-37.96 36.28c-24.31 8.232-56 4.201-63.48-7.432-14.97-23.27 11.99-45.28 37.93-55.86 25.94-10.58 53.57 2.02 53.57 2.02z" fill="#7f95fe" stroke-width="1.833"/><g transform="translate(-3.448)" fill="none" stroke-linecap="round"><path d="m84.18 518.5h558.6" stroke="#c0c9ff" stroke-width="22.53"/><path d="m82.68 518.5h358.9" stroke="#7f95fe" stroke-width="19.68"/></g><g transform="matrix(1.227 0 0 1.227 14.21 16.33)" fill="#7f95fe" stroke="#7f95fe" stroke-linecap="round" stroke-linejoin="round"><path transform="matrix(.7503 0 0 .7582 77.64 109.8)" d="m233.4 323.4v-89.23l77.28 44.62z" stroke-width="14.9" style="paint-order:fill markers stroke"/><path d="m441.3 296.7v48.95-24.47zm-42.91 1.462v46.03l42.91-23.01z" stroke-width="7.645" style="paint-order:fill markers stroke"/><path d="m122.2 296.7v48.95-24.47zm42.91 1.462v46.03l-42.91-23.01z" stroke-width="7.645" style="paint-order:fill markers stroke"/></g></svg>
