<?xml version="1.0" encoding="UTF-8"?>
<!-- Created with Inkscape (http://www.inkscape.org/) -->
<svg id="a" width="720px" height="576px" version="1.1" viewBox="0 0 720 576" xml:space="preserve" xmlns="http://www.w3.org/2000/svg"><g transform="matrix(2.194 0 0 2.194 -240.7 -126.6)" stroke-width=".4064"><path d="m323.5 278.8h-21.03v-133.3h60.81l4.415 1.31 3.758 1.903 3.802 3.802 2.38 4.714 0.8109 3.511 0.1463 49.99 0.1463 49.99-0.1394-32.92-0.1394-32.92-15.4-15.45-2.45-6.057-3.005-4.362-4.936-4.467-5.696-2.78-4.844-1.231h-6.608l-6.347 1.623-5.365 2.987-5.346 5.346-2.987 5.365-1.623 6.347v6.608l1.231 4.844 2.78 5.696 4.542 5.019 4.826 3.223 5.534 2.115 7.598 7.629-6.563 0.5809-6.379 2.209-4.577 3.038-4.865 5.2-2.899 5.93-1.325 5.278 0.1912 4.067 0.1912 4.066 2.051 5.833 3.855 5.799 4.853 4.038 4.602 2.302 2.854 0.9235 12.17 12.19zm48.51-4.064h-0.2032l2.757-2.845h0.4064l-2.757 2.845zm3.411-3.658h-0.2032v-0.4064h0.4064v0.4064zm0.8128-1.219h-0.2032v-0.4064h0.4064v0.4064zm0.4064-0.8128h-0.2032v-0.4064h0.4064v0.4064zm0.4064-0.8128h-0.2032v-0.4064h0.4064v0.4064zm0.4064-1.219h-0.2032v-0.4064h0.4064v0.4064zm0.4064-1.219h-0.2032v-0.4064h0.4064v0.4064zm0.4741-1.761-0.2709 0.2709v-1.084l0.5419 0.5418zm-40.07-0.7327-1.856-0.0554-2.032-0.3401-4.064-1.273-4.362-2.454-4.232-4.3-2.556-4.796-0.6223-2.389-0.6223-2.389v-5.072l0.8982-4.307 2.484-5.283 5.36-5.372 4.094-2.074 4.661-1.355h6.458l4.696 1.355 4.699 2.493 4.648 4.986 2.208 4.092 0.623 2.392 0.623 2.392v6.184l-1.297 4.415-2.564 4.868-4.752 4.689-5.815 2.776-4.823 0.8743zm0.1762-57.29-3.251-0.0264-3.911-1.075-4.623-2.306-5.283-5.283-2.229-4.609-1.226-4.705v-5.348l0.6223-2.389 0.6223-2.389 2.616-4.932 4.481-4.481 4.932-2.616 4.778-1.245h5.348l4.705 1.226 4.374 2.142 4.48 3.993 2.854 5.847 1.231 4.844v7.072l-1.54 4.948-2.602 4.055-4.434 4.052-5.061 2.415-3.635 0.8376-3.251-0.0264z" fill="#f7d779"/><path d="m168.2 282.5h-0.2032v-0.4064h0.4064v0.4064zm211.3 0h-0.2032v-0.4064h0.4064v0.4064zm0.7648-0.4064h-0.2032l0.5023-0.8128h0.4064l-0.5023 0.8128zm-213.3-0.8128h-0.2032v-0.4064h0.4064v0.4064zm214.2-0.4064h-0.2032v-0.4064h0.4064v0.4064zm-214.5-0.5419-0.2709 0.2709v-1.084l0.5419 0.5418zm215-0.9821-0.205 0.508v-2.032l0.41 1.016zm-19.17-0.508h-0.2032v-0.4064h0.4064v0.4064zm2.438-0.4064h-0.2032v-0.4064h0.4064v0.4064zm-198.3-0.9482-0.2709 0.2709v-1.084l0.5419 0.5419zm214.6-0.4634-0.2275 0.2275-0.555-1.457 1.01 1.002zm-214.3-0.6204h-0.1534v-0.3069l1.422-1.116-1.116 1.422zm213-0.8128h-0.2032v-0.4064h0.4064v0.4064zm-208-0.4714-3.759-0.065 2.438-0.2532 5.081-0.2263-7.3e-4 0.3048-7.5e-4 0.3048zm203.5-0.0834-4.064-2e-3 4.294-0.2995 3.833 0.3033-4.064-2e-3zm-202-2.29h-0.1792l-0.58-0.9384 0.9384 0.5799v0.3584zm-1.243-1.626h-0.2032v-0.4064h0.4064v0.4064zm-0.8128-1.219h-0.2032v-0.4064h0.4064v0.4064zm-0.4064-0.8128h-0.2032v-0.4064h0.4064v0.4064zm-0.8128-2.032h-0.2032v-0.4064h0.4064v0.4064zm-0.3387-1.355-0.2709 0.2709v-1.084l0.5419 0.5418zm-0.4064-2.032-0.2709 0.2709v-1.084l0.5419 0.5419zm-7.18-79.99h-1.016l1.016-0.41 1.016 0.41zm220.5-0.1162-3.658 0.0228 7.108-0.2794 0.1065-39.91 0.1066-39.91-3e-3 40.03-3e-3 40.03-3.658 0.0228zm-213.7-1.75-0.1556 1.727v-6.909l0.3111 3.454zm0.0875-15.24-0.2246 5.994v-23.98l0.2246 5.994 0.2246 5.994zm209.6-18.87-0.1124 13.89 8e-5 -28.04 8e-5 -28.04 0.1123 14.15 0.1123 14.15zm-209 11.25h-0.2032v-0.4064h0.4064v0.4064zm0.8128-2.438h-0.2032v-0.4064h0.4064v0.4064zm1.219-2.438h-0.2032v-0.4064h0.4064v0.4064zm0.8128-1.219h-0.2032v-0.4064h0.4064v0.4064zm1.626-2.032h-0.2032v-0.4064h0.4064v0.4064zm1.984-1.626h-0.2032l0.5023-0.8128h0.4064l-0.2512 0.4064-0.2512 0.4064zm1.267-0.8128h-0.2032v-0.4064h0.4064v0.4064zm3.251-1.626h-0.2032v-0.4064h0.4064v0.4064zm1.219-0.4064h-0.2032v-0.4064h0.4064v0.4064zm1.829-0.4064h-0.5418l0.5418-0.5419 0.5419 0.5419zm60.76-0.6041-58.11-2e-5 58.38-0.2141 57.85 0.2141zm107.5-3.524h-1.016l1.016-0.41 1.016 0.41zm-175-0.3422h-0.2032v-0.4064h0.4064v0.4064zm3.048 0h-0.5419l0.5419-0.5419 0.5419 0.5419zm114.8 0h-49.77v-3.658h-60.83l0.039-1.829 0.039-1.829 160.8-2.1e-4 -0.5583 0.9034 0.0415 3.206 0.0415 3.206zm0.0105-0.4064h49.38v-3.251h-98.75v3.251zm55.29 0.4064h-0.1792l-0.58-0.9384 0.9384 0.5799v0.3584zm3.385 0h-0.3096l2.183-2.26 0.1709 0.1158 0.1709 0.1158-1.906 2.029zm-172.5-0.4064h-0.2032v-0.4064h0.4064v0.4064zm-5.69-0.4064h-0.2032v-0.4064h0.4064v0.4064zm6.376 0h-0.2032l1.471-1.626h0.4064l-1.471 1.626zm166.7-0.8128h-0.2032v-0.4064h0.4064v0.4064zm-174.7-0.8128h-0.2032v-0.4064h0.4064v0.4064zm174.4-0.508-0.1859 0.7112v-2.845l0.1859 0.7112 0.1858 0.7112zm7.71-0.2032-0.205 0.508v-2.032l0.41 1.016zm-182.9-1.05-0.2709 0.2709v-1.084l0.5418 0.5418zm175.5-1.084h-0.2032v-0.4064h0.4064v0.4064zm6.933 0h-0.1792l-0.58-0.9384 0.9384 0.5799v0.3584zm-6.574-0.8128h-0.2032l0.5023-0.8128h0.4064l-0.5023 0.8128zm-175.9-0.8128h-0.2032v-0.4064h0.4064v0.4064zm177.2 0h-0.2032v-0.4064h0.4064v0.4064zm3.658 0h-0.2032v-0.4064h0.4064v0.4064zm-1.829-0.5007h-1.422l1.422-0.3717 1.422 0.3717zm-168-0.3121h-0.2032v-0.4064h0.4064v0.4064zm-10.57-0.4064h-0.2032v-0.4064h0.4064v0.4064zm10.16-0.4064h-0.2032v-0.4064h0.4064v0.4064zm-9.395-0.8128h-0.2032l0.2512-0.4064 0.2512-0.4064h0.4064l-0.5023 0.8128zm1.674-1.219h-0.2032v-0.4064h0.4064v0.4064zm5.69 0h-0.2032v-0.4064h0.4064v0.4064zm-4.877-0.4064h-0.2032v-0.4064h0.4064v0.4064zm4.064 0h-0.2032v-0.4064h0.4064v0.4064zm-2.032-0.4064h-0.2032v-0.4064h0.4064v0.4064zm-9.395-25.6h-0.2032l0.5023-0.8128h0.4064l-0.5023 0.8128zm104.7-1.013h-102.6l102.6-0.2095 102.6 0.2095zm-112.4-1.426h-0.2032v-0.4064h0.4064v0.4064zm224.3-0.4064h-0.2032v-0.4064h0.4064v0.4064zm-0.8128-1.626h-0.2032v-0.4064h0.4064v0.4064zm-222.3-0.4064h-0.2032v-0.4064h0.4064v0.4064zm221.5-0.8128h-0.1534l-1.116-1.422 1.422 1.116v0.3069zm-219.1-1.626h-0.2032v-0.4064h0.4064v0.4064zm217 0h-0.2032v-0.4064h0.4064v0.4064zm-216.2-0.4064h-0.2032v-0.4064h0.4064v0.4064zm0.8128-0.4064h-0.2032v-0.4064h0.4064v0.4064zm213.8 0h-0.2032v-0.4064h0.4064v0.4064zm-106.9-0.6065-105.3 6e-6 105-0.2093 105.5 0.2093z" fill="#b2b2b2"/><path d="m353.1 278.8-8.539 7e-3 -12.18-12.22 3.658 0.6409 6.096-0.0534 4.47-1.051 6.096-2.873 6.532-6.588 2.632-5.028 1.606-6.278-0.012-5.763-1.241-5.283-2.991-6.096-6.136-6.163-6.078-2.968-4.844-1.231-5.316-0.122 3.516-0.4875-8.021-7.871 2.473 0.5555 8.941-0.0706 5.283-1.83 4.52-2.739 3.771-3.32 3.8-5.715 2.073-5.833 0.0602-8.941-0.5537-2.438 15.79 15.88v67.87l-1.215 4.666-1.731 3.393-4.572 4.797-3.957 2.008-5.39 1.142-8.539 7e-3zm-177.9-4.463h-0.1402l-1.548-1.829 1.829 1.548v0.2804zm-3.314-4.064h-0.2032v-0.4064h0.4064v0.4064zm-1.219-2.438h-0.2032v-0.4064h0.4064v0.4064zm161.3-1.219h-0.2032v-0.4064h0.4064v0.4064zm-1.219-0.4064h-0.2032v-0.4064h0.4064v0.4064zm-1.219-0.4064h-0.2032v-0.4064h0.4064v0.4064zm-0.8128-0.4064h-0.2032v-0.4064h0.4064v0.4064zm-0.8128-0.4064h-0.2032v-0.4064h0.4064v0.4064zm-0.8128-0.4064h-0.2032v-0.4064h0.4064v0.4064zm-0.8128-0.4064h-0.2032v-0.4064h0.4064v0.4064zm-0.7888-0.4064h-0.1792l-0.58-0.9384 0.9384 0.58v0.3584zm10.1-0.4385-0.7789-0.0321 1.067-0.4269 0.491 0.4911-0.7789-0.0321zm6.096 0-0.7789-0.0321 1.067-0.4269 0.4911 0.4911-0.7789-0.0321zm-172.3-0.3743h-0.2032v-0.4064h0.4064v0.4064zm154.9 0h-0.1792l-0.5799-0.9384 0.9384 0.5799v0.3584zm9.12 0h-0.5419l0.5419-0.5419 0.5419 0.5419zm10.57 0h-0.5419l0.5419-0.5419 0.5418 0.5419zm-11.79-0.4064h-0.5418l0.2709-0.2709 0.2709-0.2709 0.5419 0.5418zm13.21 0h-0.2032v-0.4064h0.4064v0.4064zm-14.22-0.4064h-0.2032v-0.4064h0.4064v0.4064zm15.24 0h-0.5418l0.2709-0.2709 0.2709-0.2709 0.5419 0.5418zm-16.46-0.4064h-0.2032v-0.4064h0.4064v0.4064zm17.47 0h-0.2032v-0.4064h0.4064v0.4064zm-25.12-0.4064h-0.1235l-2.801-3.048 3.048 2.801v0.247zm6.829 0h-0.2032v-0.4064h0.4064v0.4064zm19.1 0h-0.2032v-0.4064h0.4064v0.4064zm-19.89-0.4064h-0.1792l-0.5799-0.9384 0.9384 0.58v0.3584zm20.7 0h-0.2032v-0.4064h0.4064v0.4064zm-21.95-0.8128h-0.2032v-0.4064h0.4064v0.4064zm23.16 0h-0.2032v-0.4064h0.4064v0.4064zm-24.33-0.8128h-0.1534l-1.116-1.422 1.422 1.116v0.3069zm25.5 0h-0.1534v-0.3069l1.422-1.116-1.116 1.422zm-32.44-1.626h-0.1792l-0.5799-0.9384 0.9384 0.5799v0.3584zm4.09-1.219h-0.1534l-1.116-1.422 1.422 1.116v0.3069zm-5.333-0.4064h-0.2032v-0.4064h0.4064v0.4064zm36.93 0h-0.2032l0.5023-0.8128h0.4064l-0.5023 0.8128zm-37.34-0.8128h-0.2032v-0.4064h0.4064v0.4064zm4.064-0.8128h-0.2032v-0.4064h0.4064v0.4064zm34.5 0h-0.2032l0.5023-0.8128h0.4064l-0.5023 0.8128zm-39.37-0.4064h-0.2032v-0.4064h0.4064v0.4064zm-0.3387-0.9482-0.2709 0.2709v-1.084l0.5419 0.5418zm4.403 0.1355h-0.2032v-0.4064h0.4064v0.4064zm36.17 0h-0.2032v-0.4064h0.4064v0.4064zm-36.58-0.8128h-0.2032v-0.4064h0.4064v0.4064zm36.98 0h-0.2032v-0.4064h0.4064v0.4064zm-41.45-0.4064h-0.2032v-0.4064h0.4064v0.4064zm4.064-0.4064h-0.2032v-0.4064h0.4064v0.4064zm37.79 0h-0.2032v-0.4064h0.4064v0.4064zm-42.2-0.5418-0.2709 0.2709v-1.084l0.5418 0.5419zm3.996-0.2709h-0.2032v-0.4064h0.4064v0.4064zm38.61 0h-0.2032v-0.4064h0.4064v0.4064zm-43.01-0.9482-0.2709 0.2709v-1.084l0.5419 0.5419zm43.48 0-0.2709 0.2709v-1.084l0.5419 0.5419zm-39.49-0.2709h-0.2032v-0.4064h0.4064v0.4064zm39.89-0.9482-0.2709 0.2709v-1.084l0.5419 0.5418zm-44.3-0.4064-0.2709 0.2709v-1.084l0.5419 0.5419zm3.996 0.1355h-0.2032v-0.4064h0.4064v0.4064zm40.71-1.355-0.2709 0.2709v-1.084l0.5418 0.5419zm-41.05-0.4064-0.2709 0.2709v-1.084l0.5418 0.5419zm-4.066-0.5757-0.205 0.508v-2.032l0.41 1.016zm45.54-2.235-0.1693 1.118v-4.47l0.3386 2.235zm-41.87-0.4016-0.1849 0.7064 8e-3 -1.626 8e-3 -1.626 0.1767 0.9191 0.1767 0.9191-0.1849 0.7064zm-3.668-3.459-0.205 0.508v-2.032l0.41 1.016zm4.04-0.6181-0.2455 0.2455 0.0642-1.558 0.4269 1.067-0.2455 0.2455zm41.05-0.4064-0.2455 0.2455 0.0642-1.558 0.4269 1.067-0.2455 0.2455zm-44.68-1.651-0.2709 0.2709v-1.084l0.5419 0.5419zm4.064 0-0.2709 0.2709v-1.084l0.5419 0.5419zm40.17-0.2709h-0.2032v-0.4064h0.4064v0.4064zm-43.89-1.219h-0.2032v-0.4064h0.4064v0.4064zm4.064 0h-0.2032v-0.4064h0.4064v0.4064zm39.42 0h-0.2032v-0.4064h0.4064v0.4064zm-38.95-0.9482-0.2709 0.2709v-1.084l0.5418 0.5419zm-4.132-0.2709h-0.2032v-0.4064h0.4064v0.4064zm42.67 0h-0.2032v-0.4064h0.4064v0.4064zm-38.2-0.8128h-0.2032v-0.4064h0.4064v0.4064zm37.79 0h-0.2032v-0.4064h0.4064v0.4064zm-41.86-0.4064h-0.2032v-0.4064h0.4064v0.4064zm4.47-0.4064h-0.2032v-0.4064h0.4064v0.4064zm36.98 0h-0.2032v-0.4064h0.4064v0.4064zm-41.05-0.4064h-0.2032v-0.4064h0.4064v0.4064zm40.66-0.4064h-0.1792l-0.58-0.9384 0.9384 0.58v0.3584zm-40.26-0.4064h-0.2032v-0.4064h0.4064v0.4064zm4.47 0h-0.2032v-0.4064h0.4064v0.4064zm-4.064-0.8128h-0.2032v-0.4064h0.4064v0.4064zm4.422 0h-0.2032l0.5023-0.8128h0.4064l-0.5023 0.8128zm34.62 0h-0.1792l-0.5799-0.9384 0.9384 0.58v0.3584zm-38.63-0.8128h-0.2032v-0.4064h0.4064v0.4064zm5.124-0.8128h-0.2032l2.757-2.845h0.4064l-2.757 2.845zm32.34 0h-0.1235l-2.801-3.048 3.048 2.801v0.247zm-36.66-0.4064h-0.2032v-0.4064h0.4064v0.4064zm0.763-1.219h-0.1534v-0.3069l1.422-1.116-1.116 1.422zm7.317-1.626h-0.2032l0.5023-0.8128h0.4064l-0.2512 0.4064-0.2512 0.4064zm24.43-0.4064h-0.2032v-0.4064h0.4064v0.4064zm-22.76-0.8128h-0.2032v-0.4064h0.4064v0.4064zm21.54 0h-0.2032v-0.4064h0.4064v0.4064zm-20.73-0.4064h-0.2032v-0.4064h0.4064v0.4064zm19.91 0h-0.2032v-0.4064h0.4064v0.4064zm-19.1-0.4064h-0.2032v-0.4064h0.4064v0.4064zm18.29 0h-0.2032v-0.4064h0.4064v0.4064zm-24.84-0.4064h-0.2032l0.5023-0.8128h0.4064l-0.5023 0.8128zm7.363 0h-0.2032v-0.4064h0.4064v0.4064zm16.66 0h-0.2032v-0.4064h0.4064v0.4064zm-15.65-0.4064h-0.5419l0.5419-0.5419 0.5418 0.5419zm14.63 0h-0.5418l0.5418-0.5419 0.5419 0.5419zm-13.41-0.4064h-0.5418l0.5418-0.5419 0.5419 0.5419zm12.19 0h-0.5418l0.5418-0.5419 0.5419 0.5419zm-20.16-0.4064h-0.2032l0.2512-0.4064 0.2512-0.4064h0.4064l-0.5023 0.8128zm9.598 0h-0.5419l0.5419-0.5418 0.2709 0.2709 0.2709 0.2709zm8.941 0h-0.5418l0.2709-0.2709 0.2709-0.2709 0.5419 0.5418zm-6.096-0.5007h-1.422l1.422-0.3717 1.422 0.3717zm3.251 0h-1.422l1.422-0.3717 1.422 0.3717zm-14.43-0.3121h-0.2032v-0.4064h0.4064v0.4064zm0.7648-0.4064h-0.2032l0.5023-0.8128h0.4064l-0.5023 0.8128zm1.267-0.8128h-0.2032v-0.4064h0.4064v0.4064zm1.219-0.4064h-0.2032v-0.4064h0.4064v0.4064zm0.8128-0.4064h-0.2032v-0.4064h0.4064v0.4064zm1.219-0.4064h-0.2032v-0.4064h0.4064v0.4064zm1.422-0.4064h-0.5418l0.5418-0.5419 0.5419 0.5419zm1.795-0.4385-0.7789-0.0321 1.067-0.4269 0.4911 0.4911-0.7789-0.0321zm-2.811-8.909h-0.2032v-0.4064h0.4064v0.4064zm-1.219-0.4064h-0.2032v-0.4064h0.4064v0.4064zm-1.219-0.4064h-0.2032v-0.4064h0.4064v0.4064zm-0.8128-0.4064h-0.2032v-0.4064h0.4064v0.4064zm-0.8128-0.4064h-0.2032v-0.4064h0.4064v0.4064zm-0.8128-0.4064h-0.2032v-0.4064h0.4064v0.4064zm-0.7888-0.4064h-0.1792l-0.5799-0.9384 0.9384 0.5799v0.3584zm12.78-0.5282h-2.235l2.235-0.3386 2.235 0.3386zm-14-0.2846h-0.1792l-0.5799-0.9384 0.9384 0.58v0.3584zm9.933 0h-0.5419l0.5419-0.5418 0.5419 0.5418zm8.128 0h-0.5419l0.5419-0.5418 0.2709 0.2709 0.2709 0.2709zm-9.753-0.4064h-0.5419l0.5419-0.5418 0.2709 0.2709 0.2709 0.2709zm11.58 0h-0.2032v-0.4064h0.4064v0.4064zm-13-0.4064h-0.2032v-0.4064h0.4064v0.4064zm14.22 0h-0.2032v-0.4064h0.4064v0.4064zm-22.7-0.4064h-0.1402l-1.548-1.829 1.829 1.548v0.2804zm7.658 0h-0.2032v-0.4064h0.4064v0.4064zm16.05 0h-0.5419l0.5419-0.5419 0.5418 0.5419zm-17.27-0.4064h-0.2032v-0.4064h0.4064v0.4064zm18.29 0h-0.2032v-0.4064h0.4064v0.4064zm-19.08-0.4064h-0.1792l-0.5799-0.9384 0.9384 0.5799v0.3584zm19.89 0h-0.2032v-0.4064h0.4064v0.4064zm-21.13-0.8128h-0.2032v-0.4064h0.4064v0.4064zm22.35 0h-0.2032v-0.4064h0.4064v0.4064zm0.7648-0.4064h-0.2032l0.5023-0.8128h0.4064l-0.5023 0.8128zm-29.96-0.4064h-0.1402l-1.548-1.829 1.829 1.548v0.2804zm5.65 0h-0.1792l-0.5799-0.9384 0.9384 0.5799v0.3584zm26.25-1.219h-0.2032l1.909-2.032h0.4064l-1.909 2.032zm-28.26-0.4064h-0.1534l-1.116-1.422 1.422 1.116v0.3069zm-5.715-0.8128h-0.1792l-0.58-0.9384 0.9384 0.5799v0.3584zm-0.8128-1.219h-0.1792l-0.5799-0.9384 0.9384 0.5799v0.3584zm4.47-0.4064h-0.1792l-0.5799-0.9384 0.9384 0.5799v0.3584zm33.3-0.4064h-0.2032v-0.4064h0.4064v0.4064zm-38.61-0.4064h-0.2032v-0.4064h0.4064v0.4064zm-0.4064-0.8128h-0.2032v-0.4064h0.4064v0.4064zm4.47 0h-0.2032v-0.4064h0.4064v0.4064zm35.36 0h-0.2032v-0.4064h0.4064v0.4064zm-40.23-0.8128h-0.2032v-0.4064h0.4064v0.4064zm4.47 0h-0.2032v-0.4064h0.4064v0.4064zm36.58-0.4064h-0.2032v-0.4064h0.4064v0.4064zm-41.38-0.5419-0.2709 0.2709v-1.084l0.5419 0.5418zm4.064-0.4064-0.2709 0.2709v-1.084l0.5419 0.5419zm37.73 0.1355h-0.2032v-0.4064h0.4064v0.4064zm-42.26-0.8128h-0.2032v-0.4064h0.4064v0.4064zm4.064-0.4064h-0.2032v-0.4064h0.4064v0.4064zm38.61 0h-0.2032v-0.4064h0.4064v0.4064zm-43.08-0.8128h-0.2032v-0.4064h0.4064v0.4064zm4.132-0.1355-0.2709 0.2709v-1.084l0.5419 0.5418zm39.42 0-0.2709 0.2709v-1.084l0.5419 0.5418zm-43.92-1.194-0.2455 0.2455 0.0642-1.558 0.2134 0.5334 0.2134 0.5334-0.2455 0.2455zm4.089-0.0254-0.2709 0.2709v-1.084l0.5419 0.5419zm40.21 0.0254-0.2455 0.2455 0.0642-1.558 0.2134 0.5334 0.2134 0.5334-0.2455 0.2455zm-40.64-1.626-0.2455 0.2455 0.0642-1.558 0.4269 1.067-0.2455 0.2455zm41.25-1.922-0.3488 2.235-0.1014-7.348-0.6288-2.422-0.6287-2.422-1.949-4.267h0.3497l2.338 4.674 0.8871 4.064 0.4303 3.251zm-45.29 1.321-0.205 0.508v-2.032l0.41 1.016zm3.675-2.845-0.1761 0.9144v-3.658l0.3522 1.829zm60.98-8.331-0.1255 5.588v-22.35l0.1255 5.588 0.1255 5.588zm-64.67 4.868-0.2455 0.2455 0.0642-1.558 0.4269 1.067-0.2455 0.2455zm4.064-0.8128-0.2455 0.2455 0.0321-0.7789 0.0321-0.7789 0.4269 1.067-0.2455 0.2455zm-3.632-1.651-0.2709 0.2709v-1.084l0.5419 0.5419zm4.064-0.4064-0.2709 0.2709v-1.084l0.5419 0.5418zm-3.658-1.219-0.2709 0.2709v-1.084l0.5419 0.5418zm4.064 0-0.2709 0.2709v-1.084l0.5419 0.5418zm43.42-0.2709h-0.2032v-0.4064h0.4064v0.4064zm-43.08-0.8128h-0.2032v-0.4064h0.4064v0.4064zm-4.064-0.4064h-0.2032v-0.4064h0.4064v0.4064zm46.74 0h-0.2032v-0.4064h0.4064v0.4064zm-42.26-0.4064h-0.2032v-0.4064h0.4064v0.4064zm-3.996-0.5418-0.2709 0.2709v-1.084l0.5419 0.5419zm4.403-0.2709h-0.2032v-0.4064h0.4064v0.4064zm41.45 0h-0.2032v-0.4064h0.4064v0.4064zm-45.52-0.8128h-0.2032v-0.4064h0.4064v0.4064zm4.47 0h-0.2032v-0.4064h0.4064v0.4064zm40.64 0h-0.2032v-0.4064h0.4064v0.4064zm-44.7-0.8128h-0.2032v-0.4064h0.4064v0.4064zm4.422 0h-0.2032l0.5023-0.8128h0.4064l-0.5023 0.8128zm39.87 0h-0.2032v-0.4064h0.4064v0.4064zm-43.89-0.8128h-0.2032v-0.4064h0.4064v0.4064zm43.48 0h-0.2032v-0.4064h0.4064v0.4064zm-38.66-0.4064h-0.1534v-0.3069l1.422-1.116-1.116 1.422zm33.8 0h-0.1792l-0.58-0.9384 0.9384 0.5799v0.3584zm4.47-0.4064h-0.1792l-0.5799-0.9384 0.9384 0.58v0.3584zm-42.29-0.4064h-0.2032v-0.4064h0.4064v0.4064zm0.3584-0.8128h-0.2032l0.2512-0.4064 0.2512-0.4064h0.4064l-0.2512 0.4064-0.2512 0.4064zm41.12 0h-0.1792l-0.5799-0.9384 0.9384 0.58v0.3584zm-5.257-0.4064h-0.1534l-1.116-1.422 1.422 1.116v0.3069zm-34.77-1.219h-0.2032l4.003-4.064h0.4064l-4.003 4.064zm38.84 0h-0.1402l-1.548-1.829 1.829 1.548v0.2804zm-32.62-0.4064h-0.1534v-0.3069l1.422-1.116-1.116 1.422zm26.08-0.4064h-0.1792l-0.58-0.9384 0.9384 0.5799v0.3584zm-24.46-0.8128h-0.2032l0.5023-0.8128h0.4064l-0.5023 0.8128zm22.81-0.4064h-0.2032v-0.4064h0.4064v0.4064zm-21.54-0.4064h-0.2032v-0.4064h0.4064v0.4064zm20.73 0h-0.2032v-0.4064h0.4064v0.4064zm6.565 0h-0.1402l-1.548-1.829 1.829 1.548v0.2804zm-26.48-0.4064h-0.2032v-0.4064h0.4064v0.4064zm0.8128-0.4064h-0.2032v-0.4064h0.4064v0.4064zm17.68 0h-0.5418l0.5418-0.5419 0.5419 0.5419zm-16.87-0.4064h-0.2032v-0.4064h0.4064v0.4064zm15.85 0h-0.2032v-0.4064h0.4064v0.4064zm-14.83-0.4064h-0.5419l0.5419-0.5418 0.2709 0.2709 0.2709 0.2709zm13.82 0h-0.5419l0.5419-0.5418 0.2709 0.2709 0.2709 0.2709zm-21.38-0.4064h-0.2032l0.5023-0.8128h0.4064l-0.5023 0.8128zm8.785 0h-0.5419l0.5419-0.5419 0.5418 0.5419zm11.38 0h-0.5419l0.5419-0.5419 0.5419 0.5419zm8.761 0h-0.1792l-0.5799-0.9384 0.9384 0.5799v0.3584zm-18.35-0.4385-0.7789-0.0321 1.067-0.4269 0.4911 0.491-0.7789-0.0321zm7.721 0-0.7789-0.0321 1.067-0.4269 0.2455 0.2455 0.2455 0.2455-0.7789-0.0321zm-17.03-0.3743h-0.2032v-0.4064h0.4064v0.4064zm13.21-0.1107h-1.829l1.829-0.3522 1.829 0.3522zm13.23 0.1107h-0.1792l-0.5799-0.9384 0.9384 0.58v0.3584zm-25.22-0.8128h-0.2032v-0.4064h0.4064v0.4064zm23.98 0h-0.2032v-0.4064h0.4064v0.4064zm-23.16-0.4064h-0.2032v-0.4064h0.4064v0.4064zm22.35 0h-0.2032v-0.4064h0.4064v0.4064zm-21.54-0.4064h-0.2032v-0.4064h0.4064v0.4064zm20.73 0h-0.2032v-0.4064h0.4064v0.4064zm-19.71-0.4064h-0.5418l0.5418-0.5419 0.5419 0.5419zm18.69 0h-0.5419l0.5419-0.5419 0.5418 0.5419zm-17.68-0.4064h-0.2032v-0.4064h0.4064v0.4064zm16.66 0h-0.2032v-0.4064h0.4064v0.4064zm-15.24-0.4064h-0.5419l0.5419-0.5418 0.2709 0.2709 0.2709 0.2709zm14.02 0h-0.2032v-0.4064h0.4064v0.4064zm-176.4-0.4064h-0.2032v-0.4064h0.4064v0.4064zm164 0h-0.5419l0.5419-0.5419 0.5419 0.5419zm10.74-0.0321-0.7789-0.0321 1.067-0.4269 0.4911 0.4911-0.7789-0.0321zm-8.534-0.4064-0.7789-0.0321 1.067-0.4269 0.2455 0.2455 0.2455 0.2455-0.7789-0.0321zm6.333-0.0321h-1.016l1.016-0.41 1.016 0.41zm-171.7-3.187h-0.2032v-0.4064h0.4064v0.4064zm0.8128-2.032h-0.2032v-0.4064h0.4064v0.4064zm-1.969-7.206-0.2024 0.5002 0.0151-1.219 0.0151-1.219 0.3747 1.438-0.2024 0.5003zm4e-3 -2.683-0.2709 0.2709v-1.084l0.5418 0.5418zm15.38 0.1355h-0.2032v-0.4064h0.4064v0.4064zm-15.44-1.626h-0.2032v-0.4064h0.4064v0.4064zm0.0423-0.9228-0.2455 0.2455 0.0321-0.7789 0.0321-0.7789 0.4269 1.067-0.2455 0.2455zm0.0254-1.651-0.2709 0.2709v-1.084l0.5418 0.5419zm0-1.626-0.2709 0.2709v-1.084l0.5418 0.5418zm0-1.219-0.2709 0.2709v-1.084l0.5418 0.5418zm-2e-3 -1.795-0.205 0.508v-2.032l0.41 1.016zm3.998-2.134h-0.2032v-0.4064h0.4064v0.4064zm-4.022-0.5165-0.2455 0.2455 0.0642-1.558 0.4269 1.067-0.2455 0.2455zm-0.0423-1.922h-0.2032v-0.4064h0.4064v0.4064zm14.22 0h-0.2032v-0.4064h0.4064v0.4064zm-1.219-1.219h-0.2032v-0.4064h0.4064v0.4064zm-1.626-0.8128h-0.2032v-0.4064h0.4064v0.4064zm-11.38-0.4064h-0.2032v-0.4064h0.4064v0.4064zm0-3.251h-0.2032v-0.4064h0.4064v0.4064zm209.8-21.27-0.2709 0.2709v-1.084l0.2709 0.2709 0.2709 0.2709zm-207.3-1.896h-0.2032v-0.4064h0.4064v0.4064zm205.4 0h-0.5419l0.5419-0.5419 0.5418 0.5419zm-215.2-1.219h-0.2032v-0.4064h0.4064v0.4064zm223.9-1.626h-0.2032v-0.4064h0.4064v0.4064zm-222.3-1.626h-0.2032v-0.4064h0.4064v0.4064zm1.626-1.626h-0.2032v-0.4064h0.4064v0.4064zm216.6-0.8128h-0.2032v-0.4064h0.4064v0.4064z" fill="#d6b969"/><path d="m273.9 282.4-105.4-0.0124-1.361-0.7943-0.9377-2.841 0.5164-2.351 1.383-1.252 7.852-0.1584 2.828 1.748 4.756 1.813 178 0.2157 4.518-0.8202 5.803-2.85 7.608 0.012 0.8943 0.5971 0.9345 1.775v2.935l-1.995 1.995zm-103.8-15.84h-0.2032v-0.4064h0.4064v0.4064zm-2.235-83.37h-1.016l1.016-0.41 1.016 0.41zm1.103-7.345-0.1686 1.11 8e-3 -4.877 0.3289 2.656-0.1686 1.11zm0.3192-14.13h-0.2032v-0.4064h0.4064v0.4064zm0.4064-2.438h-0.2032v-0.4064h0.4064v0.4064zm1.626-4.47h-0.2032v-0.4064h0.4064v0.4064zm1.626-2.438h-0.2032v-0.4064h0.4064v0.4064zm5.283-4.47h-0.2032v-0.4064h0.4064v0.4064zm0.8128-0.4064h-0.2032v-0.4064h0.4064v0.4064zm0.8128-0.4064h-0.2032v-0.4064h0.4064v0.4064zm-10.9-0.5419-0.2709 0.2709v-1.084l0.5418 0.5419zm12.12 0.1355h-0.2032v-0.4064h0.4064v0.4064zm1.219-0.4064h-0.2032v-0.4064h0.4064v0.4064zm-13.34-1.355-0.2709 0.2709v-1.084l0.5418 0.5419zm-0.0677-1.084h-0.2032v-0.4064h0.4064v0.4064zm0-1.626h-0.2032v-0.4064h0.4064v0.4064zm8.534-0.8128h-0.2032v-0.4064h0.4064v0.4064zm2.032 0h-0.2032v-0.4064h0.4064v0.4064zm172.4 0h-1.394l-2.151-1.993v-3.327l1.995-1.995h3.327l1.993 2.151v2.789l-2.376 2.376zm-182.9-0.5419-0.2709 0.2709v-1.084l0.5418 0.5419zm7.247 0.1355h-0.2032v-0.4064h0.4064v0.4064zm118.7 0h-49.38v-3.251h98.75v3.251zm-126-1.626h-0.2032v-0.4064h0.4064v0.4064zm5.283 0h-0.2032v-0.4064h0.4064v0.4064zm9.347-0.8128h-0.2032v-0.4064h0.4064v0.4064zm-14.56-0.5418-0.2709 0.2709v-1.084l0.5418 0.5419zm4.403 0.1355h-0.2032v-0.4064h0.4064v0.4064zm10.57-0.4064h-0.2032v-0.4064h0.4064v0.4064zm-10.91-1.524-0.205 0.508v-2.032l0.41 1.016zm11.38 0-0.205 0.508v-2.032l0.41 1.016zm-15.47-0.6181-0.2455 0.2455 0.0642-1.558 0.4269 1.067-0.2455 0.2455zm4.428-1.922h-0.2032v-0.4064h0.4064v0.4064zm-4.403-0.5419-0.2709 0.2709v-1.084l0.5418 0.5418zm4.809-0.2709h-0.2032v-0.4064h0.4064v0.4064zm-4.813-1.11-0.2024 0.5002 0.0151-1.219 0.0151-1.219 0.3747 1.438-0.2024 0.5003zm8.064-1.329h-0.2032v-0.4064h0.4064v0.4064zm-8.052-1.316-0.1849 0.7064 8e-3 -1.626 8e-3 -1.626 0.3535 1.838zm0.0183-4.272-0.1556 1.727v-6.909l0.1556 1.727 0.1556 1.727zm1.734-21.23h-0.5419l0.5419-0.5419 0.5419 0.5419zm-9.144-0.8128h-0.2032v-0.4064h0.4064v0.4064zm224.3-0.8128h-0.2032v-0.4064h0.4064v0.4064zm-223.9-0.8128h-0.2032v-0.4064h0.4064v0.4064zm0.4064-0.8128h-0.2032v-0.4064h0.4064v0.4064zm4.877-4.064h-0.2032v-0.4064h0.4064v0.4064zm212.9 0h-0.2032v-0.4064h0.4064v0.4064z" fill="#9b9b9b"/><path d="m244.3 278.7-58.22-0.0478-3.658-0.6358-4.671-1.764-4.571-4.177-2.018-3.197-1.745-4.557-0.2319-101.2 0.4508-2.704 0.4508-2.704 2.269-4.753 3.303-3.717 4.797-2.557 4.778-1.245h117.3v133.3zm-59.84-7.674h3.861v-7.721h-7.721v7.721zm15.24 0h4.064v-7.721h-8.128v7.721zm15.24 0h3.861v-7.721h-7.721v7.721zm15.24 0h4.064v-7.721h-8.128v7.721zm15.24 0h3.861v-7.721h-7.721v7.721zm15.24 0h4.064v-7.721h-8.128v7.721zm15.24 0h3.861v-7.721h-7.721v7.721zm15.24 0h4.064v-7.721h-8.128v7.721zm-106.7-15.04h3.861v-8.128h-7.721v8.128zm15.25 0h4.079l-0.1163-3.962-0.1163-3.962-7.925-0.2326v8.157zm15.23 0h3.861v-8.128h-7.721v8.128zm15.25 0h4.079l-0.1163-3.962-0.1163-3.962-7.925-0.2326v8.157zm15.23 0h3.861v-8.128h-7.721v8.128zm15.25 0h4.079l-0.1163-3.962-0.1163-3.962-7.925-0.2326v8.157zm15.23 0h3.861v-8.128h-7.721v8.128zm15.25 0h4.079l-0.1163-3.962-0.1163-3.962-7.925-0.2326v8.157zm-106.7-15.44h3.861v-7.721h-7.721v7.721zm15.24 0h4.064v-7.721h-8.128v7.721zm15.24 0h3.861v-7.721h-7.721v7.721zm15.24 0h4.064v-7.721h-8.128v7.721zm15.24 0h3.861v-7.721h-7.721v7.721zm15.24 0h4.064v-7.721h-8.128v7.721zm15.24 0h3.861v-7.721h-7.721v7.721zm15.24 0h4.064v-7.721h-8.128v7.721zm-106.7-15.04h3.861v-8.128h-7.721v8.128zm15.25 0h4.079l-0.1163-3.962-0.1163-3.962-7.925-0.2326v8.157zm15.23 0h3.861v-8.128h-7.721v8.128zm15.25 0h4.079l-0.1163-3.962-0.1163-3.962-7.925-0.2326v8.157zm15.23 0h3.861v-8.128h-7.721v8.128zm15.25 0h4.079l-0.2326-7.925-7.925-0.2326v8.157zm15.23 0h3.861v-8.128h-7.721v8.128zm15.25 0h4.079l-0.2326-7.925-7.925-0.2326v8.157zm-106.7-15.44h3.861v-7.721h-7.721v7.721zm15.24 0h4.064v-7.721h-8.128v7.721zm15.24 0h3.861v-7.721h-7.721v7.721zm15.24 0h4.064v-7.721h-8.128v7.721zm15.24 0h3.861v-7.721h-7.721v7.721zm15.24 0h4.064v-7.721h-8.128v7.721zm15.24 0h3.861v-7.721h-7.721v7.721zm15.24 0h4.064v-7.721h-8.128v7.721zm-106.7-15.04h3.861v-8.128h-7.721v8.128zm15.25 0h4.079l-0.1163-3.962-0.1163-3.962-7.925-0.2326v8.157zm15.23 0h3.861v-8.128h-7.721v8.128zm15.25 0h4.079l-0.1163-3.962-0.1163-3.962-7.925-0.2326v8.157zm15.23 0h3.861v-8.128h-7.721v8.128zm15.25 0h4.079l-0.2326-7.925-7.925-0.2326v8.157zm15.23 0h3.861v-8.128h-7.721v8.128zm15.25 0h4.079l-0.2326-7.925-7.925-0.2326v8.157zm-106.7-15.44h3.861v-7.721h-7.721v7.721zm15.24 0h4.064v-7.721h-8.128v7.721zm15.24 0h3.861v-7.721h-7.721v7.721zm15.24 0h4.064v-7.721h-8.128v7.721zm15.24 0h3.861v-7.721h-7.721v7.721zm15.24 0h4.064v-7.721h-8.128v7.721zm15.24 0h3.861v-7.721h-7.721v7.721zm15.24 0h4.064v-7.721h-8.128v7.721zm-106.7-15.04h3.861v-8.128h-7.721v8.128zm15.25 0h4.079l-0.1163-3.962-0.1163-3.962-7.925-0.2326v8.157zm15.23 0h3.861v-8.128h-7.721v8.128zm15.25 0h4.079l-0.1163-3.962-0.1163-3.962-7.925-0.2326v8.157zm15.23 0h3.861v-8.128h-7.721v8.128zm15.25 0h4.079l-0.2326-7.925-7.925-0.2326v8.157zm15.23 0h3.861v-8.128h-7.721v8.128zm15.25 0h4.079l-0.2326-7.925-7.925-0.2326v8.157zm47.53 102.7h-2.235l2.235-0.3386 2.235 0.3386zm-4.301-0.3167-0.7789-0.0321 1.067-0.4269 0.4911 0.491-0.7789-0.0321zm8.534 0-0.7789-0.0321 1.067-0.4269 0.4911 0.491-0.7789-0.0321zm-10.33-0.3743h-0.5418l0.2709-0.2709 0.2709-0.2709 0.5419 0.5418zm12.19 0h-0.5418l0.2709-0.2709 0.2709-0.2709 0.5419 0.5418zm-13.27-0.4064h-0.4529l-6.614-3.311-4.805-4.448-3.054-4.6-2.427-6.945-0.0258-8.534 1.458-4.834 2.345-4.644 4.038-4.853 5.799-3.855 5.833-2.06 9.347-0.2376-1.52 0.4465 4.253 4.306-4.764-1.121-4.47-6.8e-4 -5.207 1.227-4.93 2.621-4.541 4.47-2.522 4.47-1.43 4.877-6e-3 3.251-6e-3 3.251 1.744 5.69 2.551 4.064 2.931 3.048h-0.7585l7.689 7.721h-0.4529zm-7.19-7.721h0.1402v-0.2804l-1.829-1.548 1.548 1.829zm22.09 7.721h-0.5418l0.5418-0.5419 0.5419 0.5419zm1.016-0.4064h-0.2032v-0.4064h0.4064v0.4064zm1.219-0.4064h-0.2032v-0.4064h0.4064v0.4064zm0.8128-0.4064h-0.2032v-0.4064h0.4064v0.4064zm0.8128-0.4064h-0.2032v-0.4064h0.4064v0.4064zm0.7648-0.4064h-0.2032l0.2512-0.4064 0.2512-0.4064h0.4064l-0.5023 0.8128zm-12.14-0.5226-2.032-6e-3 2.246-0.3397 1.818 0.3508zm-4.267-0.2902h-0.5419l0.5419-0.5419 0.5419 0.5419zm8.128 0h-0.5419l0.5419-0.5419 0.5418 0.5419zm9.502 0h-0.2032l0.5023-0.8128h0.4064l-0.2512 0.4064-0.2512 0.4064zm-19.46-0.4064h-0.2032v-0.4064h0.4064v0.4064zm11.79 0h-0.2032v-0.4064h0.4064v0.4064zm-13-0.4064h-0.2032v-0.4064h0.4064v0.4064zm14.22 0h-0.2032v-0.4064h0.4064v0.4064zm7.672 0h-0.1534v-0.3069l1.422-1.116-1.116 1.422zm-22.71-0.4064h-0.2032v-0.4064h0.4064v0.4064zm16.26 0h-0.2032v-0.4064h0.4064v0.4064zm-17.47-0.4064h-0.2032v-0.4064h0.4064v0.4064zm18.29 0h-0.2032v-0.4064h0.4064v0.4064zm-19.1-0.4064h-0.2032v-0.4064h0.4064v0.4064zm19.91 0h-0.2032v-0.4064h0.4064v0.4064zm0.7648-0.4064h-0.2032l0.2512-0.4064 0.2512-0.4064h0.4064l-0.5023 0.8128zm-21.9-0.4064h-0.2032v-0.4064h0.4064v0.4064zm-0.7888-0.4064h-0.1792l-0.58-0.9384 0.9384 0.5799v0.3584zm23.91 0h-0.2032l0.5023-0.8128h0.4064l-0.5023 0.8128zm1.514-1.219h-0.2032l2.757-2.845h0.4064l-2.757 2.845zm5.393-0.4064h-0.1534v-0.3069l1.422-1.116-1.116 1.422zm1.675-2.032h-0.2032v-0.4064h0.4064v0.4064zm-3.706-1.219h-0.2032l0.5023-0.8128h0.4064l-0.5023 0.8128zm4.518 0h-0.2032v-0.4064h0.4064v0.4064zm0.4064-0.8128h-0.2032v-0.4064h0.4064v0.4064zm-3.658-0.8128h-0.2032v-0.4064h0.4064v0.4064zm4.064 0h-0.2032v-0.4064h0.4064v0.4064zm-3.658-0.8128h-0.2032v-0.4064h0.4064v0.4064zm4.064 0h-0.2032v-0.4064h0.4064v0.4064zm-3.658-0.8128h-0.2032v-0.4064h0.4064v0.4064zm4.064 0h-0.2032v-0.4064h0.4064v0.4064zm-3.658-0.8128h-0.2032v-0.4064h0.4064v0.4064zm4.064-0.4064h-0.2032v-0.4064h0.4064v0.4064zm-3.658-0.4064h-0.2032v-0.4064h0.4064v0.4064zm4.064-0.8128h-0.2032v-0.4064h0.4064v0.4064zm-3.658-0.4064h-0.2032v-0.4064h0.4064v0.4064zm4.132-1.355-0.2709 0.2709v-1.084l0.5419 0.5419zm-3.725-0.2709h-0.2032v-0.4064h0.4064v0.4064zm0.4487-1.736-0.2455 0.2455 0.0642-1.558 0.4269 1.067-0.2455 0.2455zm3.679-0.187-0.2024 0.5003 0.0302-2.438 0.3747 1.438-0.2024 0.5003zm-3.18-3.756-0.1341 1.412-0.933-6.096-0.5558-1.626 1.252 1.532 0.5048 3.366zm3.194-0.9252-0.1858 0.7112v-2.845l0.3717 1.422zm-0.4156-3.285-0.2709 0.2709v-1.084l0.5419 0.5418zm-0.4064-1.626-0.2709 0.2709v-1.084l0.5419 0.5419zm-4.132-0.6773h-0.2032v-0.4064h0.4064v0.4064zm3.725-0.5419-0.2709 0.2709v-1.084l0.5418 0.5419zm-4.132-0.6773h-0.2032v-0.4064h0.4064v0.4064zm3.658-0.4064h-0.2032v-0.4064h0.4064v0.4064zm-4.064-0.4064h-0.2032v-0.4064h0.4064v0.4064zm-0.4064-0.8128h-0.2032v-0.4064h0.4064v0.4064zm4.064 0h-0.2032v-0.4064h0.4064v0.4064zm-0.4064-0.8128h-0.2032v-0.4064h0.4064v0.4064zm-4.47-0.4064h-0.2032v-0.4064h0.4064v0.4064zm4.064-0.4064h-0.2032v-0.4064h0.4064v0.4064zm-4.853-0.8128h-0.1792l-0.58-0.9384 0.9384 0.5799v0.3584zm4.04-0.4064h-0.2032v-0.4064h0.4064v0.4064zm-0.3824-0.8128h-0.1792l-0.5799-0.9384 0.9384 0.5799v0.3584zm-1.157-1.626h-0.1169l-4.033-4.267 4.267 4.033v0.2338zm-6.132-0.8128h-0.1534l-1.116-1.422 1.422 1.116v0.3069zm-1.651-1.219h-0.1792l-0.58-0.9384 0.9384 0.58v0.3584zm-1.243-0.8128h-0.2032v-0.4064h0.4064v0.4064zm-0.8128-0.4064h-0.2032v-0.4064h0.4064v0.4064zm-0.8128-0.4064h-0.2032v-0.4064h0.4064v0.4064zm-0.8128-0.4064h-0.2032v-0.4064h0.4064v0.4064zm6.526-0.4064h-0.1792l-0.5799-0.9384 0.9384 0.5799v0.3584zm-1.219-0.8128h-0.1792l-0.5799-0.9384 0.9384 0.5799v0.3584zm-1.243-0.8128h-0.2032v-0.4064h0.4064v0.4064zm-0.8128-0.4064h-0.2032v-0.4064h0.4064v0.4064zm-0.8128-0.4064h-0.2032v-0.4064h0.4064v0.4064zm-0.8128-0.4064h-0.2032v-0.4064h0.4064v0.4064zm-1.219-0.4064h-0.2032v-0.4064h0.4064v0.4064zm-1.219-0.4064h-0.2032v-0.4064h0.4064v0.4064zm-1.422-0.4064h-0.5419l0.5419-0.5419 0.5419 0.5419zm-7.925-8.613-1.219-0.0151 1.438-0.3747 1.001 0.4048-1.219-0.0151zm4.47 0-1.219-0.0151 1.438-0.3747 1.001 0.4048-1.219-0.0151zm-7.349-0.3592-0.7789-0.0321 1.067-0.4269 0.4911 0.4911-0.7789-0.0321zm10.4 0.0321h-0.5419l0.5419-0.5419 0.5418 0.5419zm-11.8-0.416-0.193-0.01-4.768-1.96-4.173-2.778-3.54-3.551-2.408-3.499-2.054-4.644-1.142-5.97v-3.214l1.279-6.265 2.902-6.096 6.588-6.588 6.096-2.902 6.265-1.279h3.214l6.228 1.192 5.832 2.828 3.871 3.23 2.871 3.436 2.075 3.541 1.599 4.263-7.368-7.298v0.6922l-1.193-0.9903 0.0886-0.4163 0.0886-0.4163-2.088-1.325-4.414-2.908-3.451-1.352-5.693-0.8833-5.893 0.8822-6.532 3.198-5.064 5.273-2.808 5.949-0.4497 2.946-0.4497 2.946 0.8833 5.693 1.352 3.451 2.679 4.244 3.308 3.21 3.829 2.44 4.946 1.652 5.213 0.5153 6.077-1.286 4.284-2.096 4.676-3.74-2.438 2.689-4.818 3.153-5.224 1.614h-6.246l-4.804-1.251-4.79-2.299 5.949 5.989-0.193-0.01zm23-37.38h0.1792v-0.3584l-0.9384-0.5799 0.5799 0.9384zm-9.574 37.39h-0.5419l0.5419-0.5419 0.5418 0.5419zm1.219-0.4064h-0.5419l0.5419-0.5418 0.2709 0.2709 0.2709 0.2709zm1.016-0.4064h-0.2032v-0.4064h0.4064v0.4064zm1.016-0.4064h-0.5418l0.5418-0.5419 0.5419 0.5419zm0.968-0.4064h-0.2032l0.2512-0.4064 0.2512-0.4064h0.4064l-0.5023 0.8128zm1.267-0.8128h-0.2032v-0.4064h0.4064v0.4064zm0.8128-0.4064h-0.2032v-0.4064h0.4064v0.4064zm1.171-0.8128h-0.2032l0.5023-0.8128h0.4064l-0.5023 0.8128zm1.509-1.219h-0.2032l3.175-3.251h0.4064l-3.175 3.251zm3.775-4.064h-0.2032l0.5023-0.8128h0.4064l-0.5023 0.8128zm-3.659-1.219h-0.1534v-0.3069l1.422-1.116-1.116 1.422zm4.926-0.4064h-0.2032v-0.4064h0.4064v0.4064zm0.4064-0.8128h-0.2032v-0.4064h0.4064v0.4064zm-4.112-0.4064h-0.2032l0.5023-0.8128h0.4064l-0.5023 0.8128zm4.47-0.4064h-0.2032l0.5023-0.8128h0.4064l-0.5023 0.8128zm-3.61-0.8128h-0.2032v-0.4064h0.4064v0.4064zm4.538-0.5418-0.2709 0.2709v-1.084l0.5419 0.5419zm0.3387-1.084h-0.2032v-0.4064h0.4064v0.4064zm-3.658-0.8128h-0.2032v-0.4064h0.4064v0.4064zm4.132-0.1355-0.2709 0.2709v-1.084l0.2709 0.2709 0.2709 0.2709zm-3.725-0.6773h-0.2032v-0.4064h0.4064v0.4064zm4.132-0.5419-0.2709 0.2709v-1.084l0.5419 0.5418zm-3.725-0.6773h-0.2032v-0.4064h0.4064v0.4064zm4.132-0.9482-0.2709 0.2709v-1.084l0.5419 0.5418zm-3.658-0.4064-0.2709 0.2709v-1.084l0.5418 0.5419zm0.402-2.194-0.2024 0.5002 0.0151-1.219 0.0151-1.219 0.3747 1.438-0.2024 0.5003zm3.658 0-0.2024 0.5002 0.0151-1.219 0.0151-1.219 0.3747 1.438-0.2024 0.5003zm-3.658-4.47-0.2024 0.5003 0.0302-2.438 0.3747 1.438-0.2024 0.5002zm3.658 0-0.2024 0.5003 0.0302-2.438 0.1873 0.7189 0.1873 0.7189-0.2024 0.5002zm-201.5-6.104-0.1287 5.791 0.0318-81.75 2.438-3.937 3.582-1.892 212.2 0.0178 3.251 1.5 1.79 1.947 1.258 3.011v69.52h-7.315v-67.05l-1.626-1.626h-206.7l-1.471 1.076-0.4307 67.6h-6.765zm4.373 5.509-1.219-0.0151 1.438-0.3747 1.001 0.4048-1.219-0.0151zm193.1-2.063-0.2455 0.2455 0.0642-1.558 0.4269 1.067-0.2455 0.2455zm3.658-0.4064-0.2455 0.2455 0.0642-1.558 0.2134 0.5334 0.2134 0.5334-0.2455 0.2455zm-4.039-1.245-0.2709 0.2709v-1.084l0.5419 0.5419zm-0.4741-1.49h-0.2032v-0.4064h0.4064v0.4064zm-0.4064-0.8128h-0.2032v-0.4064h0.4064v0.4064zm-0.4064-0.8128h-0.2032v-0.4064h0.4064v0.4064zm-0.4064-0.8128h-0.2032v-0.4064h0.4064v0.4064zm-0.4064-0.8128h-0.2032v-0.4064h0.4064v0.4064zm-0.3824-0.8128h-0.1792l-0.5799-0.9384 0.9384 0.5799v0.3584zm-177-32.74-1.422 0.2382-3.251-1.525-1.422-2.472 1e-3 -1.766 2e-3 -1.766 1.64-2.69 2.801-1.17h2.138l2.752 1.306 1.638 2.651-2e-3 1.578-1e-3 1.578-1.584 2.597-1.868 1.203z" fill="#9d472c"/><path d="m203.6 269.4-0.1516 1.917 4e-3 -8.128 0.2995 4.294-0.1517 1.917zm30.48 0-0.1517 1.917 4e-3 -8.128 0.2995 4.294-0.1516 1.917zm30.48 0-0.1517 1.917 4e-3 -8.128 0.2995 4.294-0.1516 1.917zm30.48 0-0.1517 1.917 4e-3 -8.128 0.2995 4.294-0.1516 1.917zm44.41-2.525-4.267 0.136-3.277-0.7874-9.321-9.473 4.064 3.242 2.845 1.705 4.877 1.621 5.283 0.5434 6.096-1.276 5.21-2.559 4.95-4.965 2.573-4.877 1.397-5.283 0.094-6.957-3.623-7.226-5.221-5.534-5.891-2.911-3.929-3.989h2.119l5.166 1.596 4.877 2.922 4.366 4.22 3.161 4.813 2.096 6.566 0.0554 7.721-1.325 5.059-2.436 4.826-4.045 4.86-6.175 4.13-5.451 1.743-4.267 0.136zm-143.7-10.8h-0.2032v-0.4064h0.4064v0.4064zm7.822-3.422-0.1365 3.625-0.0836-3.948-0.0836-3.948-7.925-0.2657 7.95-0.1702 0.4146 1.08zm22.66 3.422h-0.2032v-0.4064h0.4064v0.4064zm7.822-3.422-0.1365 3.625-0.0836-3.948-0.0836-3.948-7.925-0.2657 7.95-0.1702 0.4146 1.08zm22.66 3.422h-0.2032v-0.4064h0.4064v0.4064zm7.822-3.422-0.1365 3.625-0.0836-3.948-0.0836-3.948-7.925-0.2657 7.95-0.1702 0.4146 1.08zm22.66 3.422h-0.2032v-0.4064h0.4064v0.4064zm7.822-3.422-0.1365 3.625-0.0836-3.948-0.0836-3.948-7.925-0.2657 7.95-0.1702 0.2073 0.5402 0.2073 0.5402zm-110.6-4.448-4.064-2e-3 4.294-0.2995 3.833 0.3033-4.064-2e-3zm30.48 0-4.064-2e-3 4.294-0.2995 3.833 0.3033-4.064-2e-3zm30.48 0-4.064-2e-3 4.294-0.2995 3.833 0.3033-4.064-2e-3zm30.48 0-4.064-2e-3 4.294-0.2995 3.833 0.3033-4.064-2e-3zm-72.24-9.287-0.1516 1.917 4e-3 -8.128 0.2995 4.294-0.1517 1.917zm30.48 0-0.1517 1.917 4e-3 -8.128 0.2995 4.294-0.1516 1.917zm30.48 0-0.1517 1.917 4e-3 -8.128 0.2995 4.294-0.1516 1.917zm30.48 0-0.1517 1.917 4e-3 -8.128 0.2995 4.294-0.1516 1.917zm-99.25-13.32h-0.2032v-0.4064h0.4064v0.4064zm7.822-3.422-0.1365 3.625-0.0836-3.948-0.0836-3.948-7.925-0.2657 7.95-0.1701 0.4146 1.08zm22.66 3.422h-0.2032v-0.4064h0.4064v0.4064zm7.822-3.422-0.1365 3.625-0.0836-3.948-0.0836-3.948-7.925-0.2657 7.95-0.1701 0.4146 1.08zm22.66 3.422h-0.2032v-0.4064h0.4064v0.4064zm7.822-3.422-0.1365 3.625-0.0836-3.948-0.0836-3.948-7.925-0.2657 7.95-0.1701 0.4146 1.08zm22.66 3.422h-0.2032v-0.4064h0.4064v0.4064zm7.822-3.422-0.1365 3.625-0.0836-3.948-0.0836-3.948-7.925-0.2657 7.95-0.1701 0.2073 0.5402 0.2073 0.5402zm-110.6-4.448-4.064-2e-3 4.294-0.2995 3.833 0.3033-4.064-2e-3zm30.48 0-4.064-2e-3 4.294-0.2995 3.833 0.3033-4.064-2e-3zm30.48 0-4.064-2e-3 4.294-0.2995 3.833 0.3033-4.064-2e-3zm30.48 0-4.064-2e-3 4.294-0.2995 3.833 0.3033-4.064-2e-3zm-72.24-9.287-0.1516 1.917 4e-3 -8.128 0.2995 4.294-0.1517 1.917zm30.48 0-0.1517 1.917 4e-3 -8.128 0.2995 4.294-0.1516 1.917zm30.48 0-0.1517 1.917 4e-3 -8.128 0.2995 4.294-0.1516 1.917zm30.48 0-0.1517 1.917 4e-3 -8.128 0.2995 4.294-0.1516 1.917zm45.42 1.423-2.845 0.2043-5.283-0.7562-5.994-5.971 4.815 2.311 4.804 1.251h6.246l5.224-1.614 4.846-3.132 3.424-3.992 2.824-5.358 1.242-4.769v-5.348l-1.212-4.655-2.125-4.253-3.286-4.064 9.419 9.347 0.8473 6.255-0.7624 6.013-1.722 4.603-2.126 3.854-5.738 5.738-4.064 2.253-5.69 1.878zm-144.7-14.75h-0.2032v-0.4064h0.4064v0.4064zm7.822-3.422-0.1365 3.625-0.0836-3.948-0.0836-3.948-7.925-0.2657 7.95-0.17 0.4146 1.08zm22.66 3.422h-0.2032v-0.4064h0.4064v0.4064zm7.822-3.422-0.1365 3.625-0.0836-3.948-0.0836-3.948-7.925-0.2657 7.95-0.17 0.4146 1.08zm22.66 3.422h-0.2032v-0.4064h0.4064v0.4064zm7.822-3.422-0.1365 3.625-0.0836-3.948-0.0836-3.948-7.925-0.2657 7.95-0.17 0.4146 1.08zm22.66 3.422h-0.2032v-0.4064h0.4064v0.4064zm7.822-3.422-0.1365 3.625-0.0836-3.948-0.0836-3.948-7.925-0.2657 7.95-0.17 0.2073 0.5402 0.2073 0.5402zm-110.6-4.448-4.064-2e-3 4.294-0.2995 3.833 0.3033-4.064-2e-3zm30.48 0-4.064-2e-3 4.294-0.2995 3.833 0.3033-4.064-2e-3zm30.48 0-4.064-2e-3 4.294-0.2995 3.833 0.3033-4.064-2e-3zm30.48 0-4.064-2e-3 4.294-0.2995 3.833 0.3033-4.064-2e-3zm-111.5-4.061-2.498 0.2611v-11.49h6.909v10.97h-1.913zm218.2 0.1453h-3.658v-11.38h7.315v11.38zm-178.9-5.371-0.1516 1.917 4e-3 -8.128 0.2995 4.294-0.1517 1.917zm30.48 0-0.1517 1.917 4e-3 -8.128 0.2995 4.294-0.1516 1.917zm30.48 0-0.1517 1.917 4e-3 -8.128 0.2995 4.294-0.1516 1.917zm30.48 0-0.1517 1.917 4e-3 -8.128 0.2995 4.294-0.1516 1.917zm-99.25-13.32h-0.2032v-0.4064h0.4064v0.4064zm7.822-3.422-0.1365 3.625-0.1672-7.895-7.925-0.2657 7.95-0.1701 0.4146 1.08zm22.66 3.422h-0.2032v-0.4064h0.4064v0.4064zm7.822-3.422-0.1365 3.625-0.1672-7.895-7.925-0.2657 7.95-0.1701 0.4146 1.08zm22.66 3.422h-0.2032v-0.4064h0.4064v0.4064zm7.822-3.422-0.1365 3.625-0.1672-7.895-7.925-0.2657 7.95-0.1701 0.4146 1.08zm22.66 3.422h-0.2032v-0.4064h0.4064v0.4064zm7.822-3.422-0.1365 3.625-0.1672-7.895-7.925-0.2657 7.95-0.1701 0.2073 0.5402 0.2073 0.5402zm-110.6-4.448-4.064-2e-3 4.294-0.2995 3.833 0.3033-4.064-2e-3zm30.48 0-4.064-2e-3 4.294-0.2995 3.833 0.3033-4.064-2e-3zm30.48 0-4.064-2e-3 4.294-0.2995 3.833 0.3033-4.064-2e-3zm30.48 0-4.064-2e-3 4.294-0.2995 3.833 0.3033-4.064-2e-3z" fill="#883c25"/><path d="m195.9 269.4-0.1516 1.917 4e-3 -8.128 0.2995 4.294-0.1516 1.917zm30.48 0-0.1516 1.917 4e-3 -8.128 0.2995 4.294-0.1516 1.917zm30.48 0-0.1516 1.917 4e-3 -8.128 0.2995 4.294-0.1516 1.917zm30.48 0-0.1516 1.917 4e-3 -8.128 0.1497 2.147 0.1497 2.147-0.1517 1.917zm-99.25-5.602h-0.2032v-0.4064h0.4064v0.4064zm30.48 0h-0.2032v-0.4064h0.4064v0.4064zm30.48 0h-0.2032v-0.4064h0.4064v0.4064zm30.48 0h-0.2032v-0.4064h0.4064v0.4064zm-95.1-7.87-4.064-2e-3 4.294-0.2995 3.833 0.3033-4.064-2e-3zm15.33 0.0641-3.772 0.0844-0.4159-1.084 0.138-3.42 0.138-3.42 0.1654 7.488 7.518 0.2682zm15.15-0.0641-4.064-2e-3 4.294-0.2995 3.833 0.3033-4.064-2e-3zm15.33 0.0641-3.772 0.0844-0.208-0.542-0.208-0.542 0.138-3.42 0.138-3.42 0.1654 7.488 7.518 0.2682zm15.15-0.0641-4.064-2e-3 4.294-0.2995 3.833 0.3033-4.064-2e-3zm15.33 0.0641-3.772 0.0844-0.208-0.542-0.208-0.542 0.138-3.42 0.138-3.42 0.1654 7.488 7.518 0.2682zm15.15-0.0641-4.064-2e-3 4.294-0.2995 3.833 0.3033-4.064-2e-3zm15.33 0.0641-3.772 0.0844-0.4159-1.084 0.138-3.42 0.138-3.42 0.1654 7.488 7.518 0.2682zm-95.29-17.07-0.1516 1.917 4e-3 -8.128 0.2995 4.294-0.1516 1.917zm30.48 0-0.1516 1.917 4e-3 -8.128 0.2995 4.294-0.1516 1.917zm30.48 0-0.1516 1.917 4e-3 -8.128 0.2995 4.294-0.1516 1.917zm30.48 0-0.1516 1.917 4e-3 -8.128 0.1497 2.147 0.1497 2.147-0.1517 1.917zm-99.25-5.602h-0.2032v-0.4064h0.4064v0.4064zm30.48 0h-0.2032v-0.4064h0.4064v0.4064zm30.48 0h-0.2032v-0.4064h0.4064v0.4064zm30.48 0h-0.2032v-0.4064h0.4064v0.4064zm-95.1-7.87-4.064-2e-3 4.294-0.2995 3.833 0.3033-4.064-2e-3zm15.33 0.0641-3.772 0.0844-0.4159-1.084 0.138-3.42 0.138-3.42 0.1654 7.488 7.518 0.2682zm15.15-0.0641-4.064-2e-3 4.294-0.2995 3.833 0.3033-4.064-2e-3zm15.33 0.0641-3.772 0.0844-0.208-0.542-0.208-0.542 0.138-3.42 0.138-3.42 0.1654 7.488 7.518 0.2682zm15.15-0.0641-4.064-2e-3 4.294-0.2995 3.833 0.3033-4.064-2e-3zm15.33 0.0641-3.772 0.0844-0.208-0.542-0.208-0.542 0.138-3.42 0.138-3.42 0.1654 7.488 7.518 0.2682zm15.15-0.0641-4.064-2e-3 4.294-0.2995 3.833 0.3033-4.064-2e-3zm15.33 0.0641-3.772 0.0844-0.4159-1.084 0.138-3.42 0.138-3.42 0.1654 7.488 7.518 0.2682zm-95.29-17.07-0.1516 1.917 4e-3 -8.128 0.2995 4.294-0.1516 1.917zm30.48 0-0.1516 1.917 4e-3 -8.128 0.2995 4.294-0.1516 1.917zm30.48 0-0.1516 1.917 4e-3 -8.128 0.2995 4.294-0.1516 1.917zm30.48 0-0.1516 1.917 4e-3 -8.128 0.1497 2.147 0.1497 2.147-0.1517 1.917zm-99.25-5.602h-0.2032v-0.4064h0.4064v0.4064zm30.48 0h-0.2032v-0.4064h0.4064v0.4064zm30.48 0h-0.2032v-0.4064h0.4064v0.4064zm30.48 0h-0.2032v-0.4064h0.4064v0.4064zm-95.1-7.87-4.064-2e-3 4.294-0.2995 3.833 0.3033-4.064-2e-3zm15.33 0.0641-3.772 0.0843-0.4159-1.084 0.138-3.42 0.138-3.42 0.0827 3.744 0.0827 3.744 7.518 0.2682zm15.15-0.0641-4.064-2e-3 4.294-0.2995 3.833 0.3033-4.064-2e-3zm15.33 0.0641-3.772 0.0843-0.208-0.542-0.208-0.542 0.138-3.42 0.138-3.42 0.0827 3.744 0.0827 3.744 7.518 0.2682zm15.15-0.0641-4.064-2e-3 4.294-0.2995 3.833 0.3033-4.064-2e-3zm15.33 0.0641-3.772 0.0843-0.208-0.542-0.208-0.542 0.138-3.42 0.138-3.42 0.0827 3.744 0.0827 3.744 7.518 0.2682zm15.15-0.0641-4.064-2e-3 4.294-0.2995 3.833 0.3033-4.064-2e-3zm15.33 0.0641-3.772 0.0843-0.4159-1.084 0.138-3.42 0.138-3.42 0.0827 3.744 0.0827 3.744 7.518 0.2682zm-95.29-17.07-0.1516 1.917 4e-3 -8.128 0.2995 4.294-0.1516 1.917zm30.48 0-0.1516 1.917 4e-3 -8.128 0.2995 4.294-0.1516 1.917zm30.48 0-0.1516 1.917 4e-3 -8.128 0.2995 4.294-0.1516 1.917zm30.48 0-0.1516 1.917 4e-3 -8.128 0.1497 2.147 0.1497 2.147-0.1517 1.917zm-99.25-5.602h-0.2032v-0.4064h0.4064v0.4064zm30.48 0h-0.2032v-0.4064h0.4064v0.4064zm30.48 0h-0.2032v-0.4064h0.4064v0.4064zm30.48 0h-0.2032v-0.4064h0.4064v0.4064zm-95.1-7.87-4.064-2e-3 4.294-0.2995 3.833 0.3033-4.064-2e-3zm15.33 0.0641-3.772 0.0843-0.4159-1.084 0.138-3.42 0.138-3.42 0.0827 3.744 0.0827 3.744 7.518 0.2682zm15.15-0.0641-4.064-2e-3 4.294-0.2995 3.833 0.3033-4.064-2e-3zm15.33 0.0641-3.772 0.0843-0.208-0.542-0.208-0.542 0.138-3.42 0.138-3.42 0.0827 3.744 0.0827 3.744 7.518 0.2682zm15.15-0.0641-4.064-2e-3 4.294-0.2995 3.833 0.3033-4.064-2e-3zm15.33 0.0641-3.772 0.0843-0.208-0.542-0.208-0.542 0.138-3.42 0.138-3.42 0.0827 3.744 0.0827 3.744 7.518 0.2682zm15.15-0.0641-4.064-2e-3 4.294-0.2995 3.833 0.3033-4.064-2e-3zm15.33 0.0641-3.772 0.0843-0.4159-1.084 0.138-3.42 0.138-3.42 0.0827 3.744 0.0827 3.744 7.518 0.2682z" fill="#612b1a"/><path d="m184.4 271.1h-3.876v-7.752l7.518 0.2337 0.1168 3.759 0.1168 3.759zm15.22 0h-3.658v-7.721h7.315v7.721zm15.25 0h-3.876v-7.752l7.518 0.2337 0.1168 3.759 0.1168 3.759zm15.22 0h-3.658v-7.721h7.315v7.721zm15.25 0h-3.876v-7.752l7.518 0.2337 0.1168 3.759 0.1168 3.759zm15.22 0h-3.658v-7.721h7.315v7.721zm15.25 0h-3.876v-7.752l7.518 0.2337 0.1168 3.759 0.1168 3.759zm15.22 0h-3.658v-7.721h7.315v7.721zm-106.7-15.44h-3.861v-7.315h7.721v7.315zm15.24 0h-3.658v-7.315h7.315v7.315zm15.24 0h-3.861v-7.315h7.721v7.315zm15.24 0h-3.658v-7.315h7.315v7.315zm15.24 0h-3.861v-7.315h7.721v7.315zm15.24 0h-3.658v-7.315h7.315v7.315zm15.24 0h-3.861v-7.315h7.721v7.315zm15.24 0h-3.658v-7.315h7.315v7.315zm-106.7-15.04h-3.876v-7.752l7.518 0.2337 0.2337 7.518zm15.22 0h-3.658v-7.721h7.315v7.721zm15.25 0h-3.876v-7.752l7.518 0.2337 0.2337 7.518zm15.22 0h-3.658v-7.721h7.315v7.721zm15.25 0h-3.876v-7.752l7.518 0.2337 0.2337 7.518zm15.22 0h-3.658v-7.721h7.315v7.721zm15.25 0h-3.876v-7.752l7.518 0.2337 0.2337 7.518zm15.22 0h-3.658v-7.721h7.315v7.721zm-106.7-15.44h-3.861v-7.315h7.721v7.315zm15.24 0h-3.658v-7.315h7.315v7.315zm15.24 0h-3.861v-7.315h7.721v7.315zm15.24 0h-3.658v-7.315h7.315v7.315zm15.24 0h-3.861v-7.315h7.721v7.315zm15.24 0h-3.658v-7.315h7.315v7.315zm15.24 0h-3.861v-7.315h7.721v7.315zm15.24 0h-3.658v-7.315h7.315v7.315zm-106.7-15.04h-3.876v-7.752l7.518 0.2337 0.2337 7.518zm15.22 0h-3.658v-7.721h7.315v7.721zm15.25 0h-3.876v-7.752l7.518 0.2337 0.2337 7.518zm15.22 0h-3.658v-7.721h7.315v7.721zm15.25 0h-3.876v-7.752l7.518 0.2337 0.2337 7.518zm15.22 0h-3.658v-7.721h7.315v7.721zm15.25 0h-3.876v-7.752l7.518 0.2337 0.2337 7.518zm15.22 0h-3.658v-7.721h7.315v7.721zm-106.7-15.44h-3.861v-7.315h7.721v7.315zm15.24 0h-3.658v-7.315h7.315v7.315zm15.24 0h-3.861v-7.315h7.721v7.315zm15.24 0h-3.658v-7.315h7.315v7.315zm15.24 0h-3.861v-7.315h7.721v7.315zm15.24 0h-3.658v-7.315h7.315v7.315zm15.24 0h-3.861v-7.315h7.721v7.315zm15.24 0h-3.658v-7.315h7.315v7.315zm-106.7-15.04h-3.876v-7.752l7.518 0.2337 0.2337 7.518zm15.22 0h-3.658v-7.721h7.315v7.721zm15.25 0h-3.876v-7.752l7.518 0.2337 0.2337 7.518zm15.22 0h-3.658v-7.721h7.315v7.721zm15.25 0h-3.876v-7.752l7.518 0.2337 0.2337 7.518zm15.22 0h-3.658v-7.721h7.315v7.721zm15.25 0h-3.876v-7.752l7.518 0.2337 0.2337 7.518zm15.22 0h-3.658v-7.721h7.315v7.721zm-106.7-15.44h-3.861v-7.315h7.721v7.315zm15.24 0h-3.658v-7.315h7.315v7.315zm15.24 0h-3.861v-7.315h7.721v7.315zm15.24 0h-3.658v-7.315h7.315v7.315zm15.24 0h-3.861v-7.315h7.721v7.315zm15.24 0h-3.658v-7.315h7.315v7.315zm15.24 0h-3.861v-7.315h7.721v7.315zm15.24 0h-3.658v-7.315h7.315v7.315z" fill="#020000"/></g></svg>
