<?xml version="1.0" encoding="UTF-8"?>
<!-- Created with Inkscape (http://www.inkscape.org/) -->
<svg id="d" width="720px" height="576px" version="1.1" viewBox="0 0 720 576" xml:space="preserve" xmlns="http://www.w3.org/2000/svg" xmlns:xlink="http://www.w3.org/1999/xlink"><defs><linearGradient id="a"><stop stop-color="#050505" offset="0"/><stop stop-color="#a6a6a6" offset="1"/></linearGradient><linearGradient id="c" x1="24.84" x2="730.4" y1="23.62" y2="600.6" gradientTransform="matrix(.4155 0 0 .4155 149.9 145.6)" gradientUnits="userSpaceOnUse" xlink:href="#a" spreadMethod="reflect"/><linearGradient id="b" x1="24.21" x2="476.4" y1="36.84" y2="480.2" gradientTransform="matrix(.3737 0 0 .3261 162.7 152.6)" gradientUnits="userSpaceOnUse" xlink:href="#a"/></defs><g transform="matrix(2.486 0 0 2.486 -292.6 -313.6)"><path d="m173.2 155.4c-7.157 0-12.92 5.761-12.92 12.92v147.3c0 7.157 5.761 12.92 12.92 12.92h178.8c7.157 0 12.92-5.761 12.92-12.92v-147.3c0-7.157-5.761-12.92-12.92-12.92zm-1.401 9.141h12.57c1.777 0 3.207 1.43 3.207 3.207v3.908c0 1.777-1.43 3.207-3.207 3.207h-12.57c-1.777 0-3.207-1.43-3.207-3.207v-3.908c0-1.777 1.43-3.207 3.207-3.207zm28.17 0h12.57c1.777 0 3.206 1.43 3.206 3.207v3.908c0 1.777-1.43 3.207-3.206 3.207h-12.57c-1.777 0-3.206-1.43-3.206-3.207v-3.908c0-1.777 1.43-3.207 3.206-3.207zm28.17 0h12.57c1.777 0 3.207 1.43 3.207 3.207v3.908c0 1.777-1.43 3.207-3.207 3.207h-12.57c-1.777 0-3.207-1.43-3.207-3.207v-3.908c0-1.777 1.43-3.207 3.207-3.207zm28.17 0h12.57c1.777 0 3.206 1.43 3.206 3.207v3.908c0 1.777-1.43 3.207-3.206 3.207h-12.57c-1.777 0-3.206-1.43-3.206-3.207v-3.908c0-1.777 1.43-3.207 3.206-3.207zm28.17 0h12.57c1.777 0 3.207 1.43 3.207 3.207v3.908c0 1.777-1.43 3.207-3.207 3.207h-12.57c-1.777 0-3.207-1.43-3.207-3.207v-3.908c0-1.777 1.43-3.207 3.207-3.207zm28.17 0h12.57c1.777 0 3.206 1.43 3.206 3.207v3.908c0 1.777-1.43 3.207-3.206 3.207h-12.57c-1.777 0-3.206-1.43-3.206-3.207v-3.908c0-1.777 1.43-3.207 3.206-3.207zm28.17 0h12.57c1.777 0 3.207 1.43 3.207 3.207v3.908c0 1.777-1.43 3.207-3.207 3.207h-12.57c-1.777 0-3.207-1.43-3.207-3.207v-3.908c0-1.777 1.43-3.207 3.207-3.207zm-78.22 50.22a27.22 27.22 0 0 1 27.22 27.22 27.22 27.22 0 0 1-27.22 27.22 27.22 27.22 0 0 1-27.22-27.22 27.22 27.22 0 0 1 27.22-27.22zm-90.79 94.35h12.57c1.777-1e-5 3.207 1.43 3.207 3.207v3.908c0 1.777-1.43 3.207-3.207 3.207h-12.57c-1.777 1e-5 -3.207-1.43-3.207-3.207v-3.908c0-1.777 1.43-3.207 3.207-3.207zm28.17 0h12.57c1.777-1e-5 3.206 1.43 3.206 3.207v3.908c0 1.777-1.43 3.207-3.206 3.207h-12.57c-1.777 1e-5 -3.206-1.43-3.206-3.207v-3.908c0-1.777 1.43-3.207 3.206-3.207zm28.17 0h12.57c1.777-1e-5 3.207 1.43 3.207 3.207v3.908c0 1.777-1.43 3.207-3.207 3.207h-12.57c-1.777 1e-5 -3.207-1.43-3.207-3.207v-3.908c0-1.777 1.43-3.207 3.207-3.207zm28.17 0h12.57c1.777-1e-5 3.206 1.43 3.206 3.207v3.908c0 1.777-1.43 3.207-3.206 3.207h-12.57c-1.777 1e-5 -3.206-1.43-3.206-3.207v-3.908c0-1.777 1.43-3.207 3.206-3.207zm28.17 0h12.57c1.777-1e-5 3.207 1.43 3.207 3.207v3.908c0 1.777-1.43 3.207-3.207 3.207h-12.57c-1.777 1e-5 -3.207-1.43-3.207-3.207v-3.908c0-1.777 1.43-3.207 3.207-3.207zm28.17 0h12.57c1.777-1e-5 3.206 1.43 3.206 3.207v3.908c0 1.777-1.43 3.207-3.206 3.207h-12.57c-1.777 1e-5 -3.206-1.43-3.206-3.207v-3.908c0-1.777 1.43-3.207 3.206-3.207zm28.17 0h12.57c1.777-1e-5 3.207 1.43 3.207 3.207v3.908c0 1.777-1.43 3.207-3.207 3.207h-12.57c-1.777 1e-5 -3.207-1.43-3.207-3.207v-3.908c0-1.777 1.43-3.207 3.207-3.207z" fill="url(#c)" style="paint-order:fill markers stroke"/><path d="m249.9 258v-29.1l28.88 14.55z" fill="url(#b)" stroke="url(#b)" stroke-linecap="round" stroke-linejoin="round" stroke-width="5.201" style="paint-order:fill markers stroke"/></g></svg>
