<?xml version="1.0" encoding="UTF-8"?>
<!-- Created with Inkscape (http://www.inkscape.org/) -->
<svg id="a" width="720px" height="576px" version="1.1" viewBox="0 0 720 576" xml:space="preserve" xmlns="http://www.w3.org/2000/svg"><g transform="matrix(2.101 0 0 2.101 -211.4 -48.22)"><g transform="matrix(.7353 0 0 .7353 78.03 31.99)"><rect x="107" y="63.17" width="313.8" height="219.1" fill="#afe"/><path d="m103.9 293.9s60.91-128.4 87.09-127.8c26.19 0.5973 81.31 134 81.31 134z" fill="#784421"/><path d="m433.5 283.9s-53.58-161.3-95.54-156.9-94.62 146-94.62 146z" fill="#c87137"/><path d="m109.2 45.89a15.1 15.1 0 0 0-15.1 15.1v226.4a15.1 15.1 0 0 0 15.1 15.1h307.6a15.1 15.1 0 0 0 15.1-15.1v-226.4a15.1 15.1 0 0 0-15.1-15.1zm15.1 30.2h277.4v196.2h-277.4z" color="#000000" fill="#f95" fill-rule="evenodd" stroke-linejoin="round" style="-inkscape-stroke:none"/><circle cx="207.7" cy="128.5" r="29.82" fill="#fd5"/></g></g></svg>
