<?xml version="1.0" standalone="no"?>
<!DOCTYPE svg PUBLIC "-//W3C//DTD SVG 20010904//EN"
 "http://www.w3.org/TR/2001/REC-SVG-20010904/DTD/svg10.dtd">
<svg version="1.0" xmlns="http://www.w3.org/2000/svg"
 width="700.000000pt" height="700.000000pt" viewBox="0 0 700.000000 700.000000"
 preserveAspectRatio="xMidYMid meet">
<metadata>
Created by potrace 1.14, written by Peter Selinger 2001-2017
</metadata>
<g transform="translate(0.000000,700.000000) scale(0.100000,-0.100000)"
fill="#000000" stroke="none">
<path d="M4129 6855 c-110 -40 -178 -100 -233 -205 -60 -114 -86 -232 -131
-605 -9 -71 -20 -134 -25 -139 -15 -15 -161 -45 -295 -61 -419 -48 -779 -19
-887 72 -23 19 -54 41 -70 49 -16 8 -38 35 -53 63 -114 225 -483 490 -798 572
-115 30 -268 30 -356 0 -177 -61 -267 -171 -312 -383 -16 -71 -22 -147 -26
-318 -6 -238 1 -379 42 -835 32 -347 45 -600 37 -695 l-7 -75 -35 -3 c-84 -6
-80 0 -80 -117 0 -58 -3 -105 -6 -105 -14 0 -321 -41 -342 -45 -21 -5 -22 -10
-22 -92 l0 -86 118 6 c64 4 142 13 172 21 30 9 55 14 56 13 2 -1 -20 -68 -47
-147 -143 -412 -226 -861 -255 -1380 l-7 -125 -52 -80 c-65 -99 -83 -135 -129
-258 -70 -188 -120 -445 -148 -767 -14 -167 -17 -790 -4 -992 l8 -138 3254 0
c3092 0 3254 1 3254 18 0 9 -48 96 -106 192 -165 274 -292 539 -368 770 -113
342 -152 536 -144 723 6 124 19 172 92 335 124 275 149 406 148 762 -1 455
-56 873 -173 1313 -22 81 -37 152 -34 156 2 5 21 12 40 15 41 8 41 10 21 133
-7 45 -11 85 -8 88 3 3 47 5 99 5 73 0 93 3 93 14 0 36 -51 361 -58 368 -7 7
-178 -6 -373 -28 l-56 -6 -58 103 c-186 335 -380 525 -605 594 -30 9 -126 22
-212 29 -103 9 -163 18 -174 27 -10 8 -35 41 -56 73 -46 72 -48 106 -14 226
29 101 42 171 51 262 10 109 8 259 -6 313 -46 187 -199 308 -467 370 -77 18
-204 18 -253 0z m240 -231 c108 -26 189 -70 226 -122 l30 -44 -1 -171 c-1
-144 -5 -184 -23 -247 -47 -164 -56 -223 -44 -296 14 -82 68 -194 123 -256 74
-85 180 -128 315 -128 123 -1 215 -18 285 -52 81 -40 182 -139 266 -263 76
-112 136 -215 125 -215 -4 0 -88 -11 -187 -25 -98 -14 -188 -25 -199 -25 -15
0 -25 11 -36 43 l-16 42 -326 3 -327 2 0 -85 c0 -47 -3 -85 -7 -85 -5 0 -98
-11 -208 -25 -574 -70 -695 -72 -695 -10 l0 25 -330 0 -330 0 0 -89 0 -88 -72
-7 c-82 -8 -1074 -114 -1416 -151 -123 -14 -234 -25 -247 -25 l-23 0 -1 153
c0 157 -7 265 -41 632 -35 387 -42 529 -38 761 4 193 8 241 27 308 45 168 99
212 256 210 141 -1 292 -57 465 -174 163 -110 276 -225 339 -347 39 -74 87
-123 109 -109 4 2 28 -11 52 -31 105 -83 215 -114 475 -133 250 -19 623 10
841 65 201 51 227 92 264 418 25 210 49 338 80 420 23 62 70 123 104 138 27
11 93 5 185 -17z m949 -2131 l3 -93 110 0 110 0 -3 -112 -3 -113 -112 -3 -112
-3 -3 93 -3 93 -67 3 -67 3 -3 -108 -3 -108 -78 -14 c-42 -7 -88 -10 -101 -7
-31 8 -46 51 -46 132 l0 64 -89 0 -89 0 -18 67 c-10 37 -18 87 -18 112 l-1 46
113 3 112 3 0 -91 0 -90 88 0 89 0 -18 83 c-23 104 -23 124 -1 130 9 2 60 4
112 3 l95 -1 3 -92z m-2384 -255 c12 -125 5 -117 93 -102 42 8 79 11 83 9 4
-2 15 -45 25 -95 11 -49 22 -94 25 -100 4 -6 38 -4 94 6 49 8 90 13 93 11 6
-7 -18 -231 -26 -240 -4 -4 -48 -7 -97 -5 l-89 3 -10 75 -10 75 -67 3 -68 3 0
-106 0 -106 -112 3 -113 3 -3 87 -3 87 -87 3 -87 3 -10 74 c-6 46 -15 76 -23
79 -8 2 -53 9 -100 16 l-87 11 0 105 0 105 78 19 c78 19 78 19 105 -1 32 -24
40 -48 41 -132 1 -60 2 -63 24 -58 12 3 38 9 58 12 l37 7 17 96 c9 54 18 103
20 110 3 8 32 12 98 12 l94 0 7 -72z m1595 -45 l24 -93 88 0 87 0 10 -47 c6
-27 16 -76 23 -111 9 -50 15 -61 28 -58 98 31 1175 157 1191 140 10 -11 73
-285 94 -409 52 -303 69 -508 70 -805 1 -348 -13 -425 -123 -669 -153 -339
-156 -559 -15 -1056 101 -352 209 -600 404 -927 l22 -38 -2980 0 -2979 0 -7
37 c-13 82 -18 575 -7 765 31 555 126 941 281 1154 56 77 54 66 69 329 33 548
118 943 308 1445 22 58 50 137 63 175 12 39 27 75 34 81 6 7 85 21 176 33 431
56 565 71 576 67 22 -8 53 -82 60 -140 4 -31 12 -56 18 -56 6 0 44 6 84 14 40
7 74 11 76 7 2 -3 7 -40 10 -81 12 -128 5 -120 106 -120 l88 0 6 -37 c3 -21 8
-64 12 -95 6 -52 8 -57 28 -53 164 37 153 41 158 -58 2 -45 8 -89 13 -96 12
-21 165 -10 685 49 245 27 475 50 513 50 78 0 76 -6 47 120 -11 47 -20 88 -20
92 0 4 42 9 93 10 l92 3 3 106 3 106 79 18 c43 10 83 21 89 24 6 4 3 30 -11
74 -11 37 -18 73 -15 81 14 36 133 65 257 62 l65 -1 24 -92z m-3602 -185 l-22
-62 -3 48 c-4 60 2 76 27 76 20 0 20 -1 -2 -62z"/>
<path d="M2763 3998 c6 -73 28 -98 84 -98 52 0 70 14 78 62 3 24 8 55 11 71
l6 27 -93 0 -92 0 6 -62z"/>
<path d="M4760 3466 l0 -166 165 0 165 0 0 -69 0 -70 43 -5 c40 -5 412 -26
450 -26 16 0 17 15 17 180 l0 180 -165 0 -165 0 0 59 c0 46 -4 61 -17 67 -10
4 -125 10 -255 12 l-238 4 0 -166z"/>
<path d="M3890 2685 l0 -75 70 0 70 0 0 75 0 75 -70 0 -70 0 0 -75z"/>
<path d="M5270 2685 l0 -75 165 0 165 0 0 75 0 75 -165 0 -165 0 0 -75z"/>
<path d="M4070 2505 l0 -75 585 0 586 0 -3 73 -3 72 -582 3 -583 2 0 -75z"/>
</g>
</svg>
